<?xml version="1.0" encoding="UTF-8"?><svg xmlns="http://www.w3.org/2000/svg" viewBox="0 0 311.05 477.47"><defs><style>.d{fill:#fff;}.e{fill:#f63754;}</style></defs><g id="a"/><g id="b"><g id="c"><path class="e" d="M170.87,98.35c-6.11-3.65-12.06-7.78-18.56-10.54-18.32-7.73-33.89-3.84-49.58,4.52l-.72,.4c-3.49,1.87-6.98,3.98-10.52,6.19,.13,.24,.26,.51,.4,.77,.77,1.49,1.78,3.23,3.16,5.47l15.82,26.09,34.53,56.98,22.69,37.41,78.57-119.6c-25.39,9.84-50.65,7.34-75.78-7.69Zm-56.43,24.16c-.31-.02-.86,.04-.92-.11-.15-.35-.09-.81-.13-1.25,.35,.11,.81,.13,1.03,.37,.15,.18,.02,.64,.02,.99Zm29.3,59.15c-.57-.42-1.14-.81-1.71-1.21,.15-.22,.29-.46,.42-.68,.64,.37,1.25,.75,1.89,1.12-.2,.24-.4,.51-.59,.77Z"/><path class="d" d="M45.16,25.26c-.74-3.78-1.41-7.15-2.15-10.93C66.96,9.55,90.59,4.78,114.24,.17c4.8-.94,6.56,2.21,7.37,6.37,4.27,21.73,8.61,43.45,13.08,65.92-3.58,.21-6.98,.42-11.22,.67-4.01-20.04-8.03-40.17-12.19-60.98-22.04,4.37-43.86,8.69-66.12,13.11Z"/><path d="M205.11,71.99l-31.56,.24s14.32-.81,31.56-.24Z"/><path class="d" d="M311.05,65.45c-3.23,4.83-6.48,9.64-9.73,14.43-1.54,2.33-3.08,4.61-4.61,6.9-29.61,43.67-59.53,85.91-91.31,126.7l-27.79,42.15v182.01c0,14.69,1.91,24.36,5.73,28.93,3.8,4.57,12.06,6.88,24.78,6.88v4.04H101.79v-4.04c20.32,1.25,30.49-6.74,30.49-24.01l-.55-11.36v-168.01L34.29,108.76C24.03,91.65,12.61,83.37,0,83.94v-4.06H93.95v4.06c-6.55,0-10.63,1.85-12.3,5.56-.55,1.25-.83,2.72-.83,4.39,0,2.37,1.1,5.65,3.27,9.84,.94,1.85,2.13,3.87,3.49,6.06l44.37,73.19,.02,.04,35.8,59.06,4.2-6.37,83.4-126.96c1.6-1.45,3.38-4.11,5.38-7.95,.4-.72,.72-1.43,1.01-2.06,.66-1.38,1.14-2.53,1.45-3.49,0,0,0-.02,.02-.04,.31-.99,.48-1.8,.48-2.37,0-.24,0-.46-.02-.68,.07-5.36-3.98-9.34-10.41-12.28-5.38-2.5-12.45-4.22-20.16-5.45h-.07c-9.01-1.43-18.89-2.13-27.94-2.44-17.24-.57-31.56,.24-31.56,.24,0-.7-.02-1.41-.04-2.06,45.18-1.58,90.39-3.12,137.55-4.72Z"/><path d="M263.72,92.84c0,.57-.18,1.38-.48,2.37,0-.09,.02-.15,.04-.22,.24-.97,.4-1.93,.42-2.83,.02,.22,.02,.44,.02,.68Z"/><path class="e" d="M155.51,191.13l-10.13-2.9-34.53-56.98-2.77-8.74,2.11-8.35,11.29-8.13s33.89,64.6,34.02,66.73c.15,2.11,0,18.36,0,18.36Z"/><path class="d" d="M181.99,110.34c-51.68-17.99-78.44-9.8-80.06-9.27-.07,.02-.09,.02-.09,.02,0,0,.02,0,.04-.02,1.14-.7,26.12-15.51,47.51-4.79,12.67,6.39,23.61,10.85,32.6,14.06Z"/><path class="d" d="M103.46,101.07c-.07,.02-.09,.02-.09,.02,0,0,.02,0,.04-.02h.04Z"/></g></g></svg>