<?xml version="1.0" encoding="UTF-8"?><svg xmlns="http://www.w3.org/2000/svg" viewBox="0 0 237.86 39.86"><defs><style>.d{fill:#fff;}.e{fill:#232323;}.f{fill:#fed605;}</style></defs><g id="a"/><g id="b"><g id="c"><rect class="f" x="0" y="0" width="237.86" height="39.86" rx="19.93" ry="19.93"/><circle class="d" cx="20.65" cy="19.93" r="13.74"/><g><path class="e" d="M66.54,20.34c.85,.93,1.28,2.08,1.28,3.46,0,1.06-.28,2.04-.84,2.94-.56,.9-1.41,1.61-2.54,2.15-1.14,.54-2.54,.81-4.19,.81-1.29,0-2.55-.17-3.8-.51-1.24-.34-2.3-.82-3.17-1.45l1.64-3.24c.7,.52,1.5,.93,2.41,1.21,.91,.29,1.85,.43,2.81,.43,1.06,0,1.9-.2,2.51-.61,.61-.41,.91-.99,.91-1.74,0-1.5-1.14-2.24-3.42-2.24h-1.93v-2.79l3.76-4.25h-7.78v-3.39h12.79v2.74l-4.12,4.7c1.6,.26,2.83,.86,3.68,1.79Z"/><path class="e" d="M76.83,11.11V29.38h-4.23V14.51h-3.65v-3.39h7.88Z"/><path class="e" d="M87.06,11.11V29.38h-4.23V14.51h-3.65v-3.39h7.88Z"/><path class="e" d="M103.89,25.94v3.45h-13.81v-2.74l7.05-6.66c.75-.71,1.25-1.33,1.51-1.84s.39-1.02,.39-1.53c0-.73-.25-1.29-.74-1.68-.5-.39-1.22-.59-2.18-.59-.8,0-1.52,.15-2.17,.46s-1.18,.76-1.62,1.37l-3.08-1.98c.71-1.06,1.7-1.89,2.95-2.49,1.25-.6,2.69-.9,4.31-.9,1.36,0,2.54,.22,3.56,.67,1.02,.44,1.81,1.07,2.38,1.88,.56,.81,.85,1.76,.85,2.86,0,.99-.21,1.92-.63,2.79-.42,.87-1.23,1.86-2.43,2.98l-4.2,3.97h7.86Z"/><path class="e" d="M112.69,11.11V29.38h-4.23V14.51h-3.65v-3.39h7.88Z"/><path class="e" d="M127.85,18.63c.96,.47,1.71,1.14,2.27,2,.56,.86,.83,1.86,.83,2.99,0,1.22-.3,2.29-.91,3.21-.61,.92-1.44,1.63-2.49,2.13s-2.22,.74-3.51,.74c-2.56,0-4.56-.78-6-2.35-1.45-1.57-2.17-3.8-2.17-6.71,0-2.07,.39-3.84,1.17-5.32,.78-1.48,1.88-2.6,3.28-3.37,1.4-.76,3.02-1.15,4.87-1.15,.97,0,1.91,.11,2.81,.33,.9,.22,1.66,.53,2.28,.93l-1.57,3.11c-.9-.61-2.04-.91-3.42-.91-1.55,0-2.78,.45-3.68,1.36s-1.39,2.22-1.46,3.94c1.08-1.08,2.58-1.62,4.52-1.62,1.17,0,2.23,.23,3.18,.7Zm-1.84,7.18c.57-.49,.85-1.15,.85-1.98s-.28-1.5-.85-2-1.32-.74-2.26-.74-1.68,.26-2.27,.77c-.59,.51-.89,1.17-.89,1.97s.29,1.45,.86,1.96c.57,.5,1.36,.76,2.35,.76,.9,0,1.64-.24,2.21-.73Z"/><path class="e" d="M144.71,20.34c.85,.93,1.28,2.08,1.28,3.46,0,1.06-.28,2.04-.84,2.94-.56,.9-1.41,1.61-2.54,2.15-1.14,.54-2.54,.81-4.19,.81-1.29,0-2.55-.17-3.8-.51-1.24-.34-2.3-.82-3.17-1.45l1.64-3.24c.7,.52,1.5,.93,2.41,1.21,.91,.29,1.85,.43,2.81,.43,1.06,0,1.9-.2,2.51-.61,.61-.41,.91-.99,.91-1.74,0-1.5-1.14-2.24-3.42-2.24h-1.93v-2.79l3.76-4.25h-7.78v-3.39h12.79v2.74l-4.12,4.7c1.6,.26,2.83,.86,3.68,1.79Z"/><path class="e" d="M159.93,18.63c.96,.47,1.71,1.14,2.27,2,.56,.86,.83,1.86,.83,2.99,0,1.22-.3,2.29-.91,3.21-.61,.92-1.44,1.63-2.49,2.13s-2.22,.74-3.51,.74c-2.56,0-4.56-.78-6-2.35-1.45-1.57-2.17-3.8-2.17-6.71,0-2.07,.39-3.84,1.17-5.32,.78-1.48,1.88-2.6,3.28-3.37,1.4-.76,3.02-1.15,4.87-1.15,.97,0,1.91,.11,2.81,.33,.9,.22,1.66,.53,2.28,.93l-1.57,3.11c-.9-.61-2.04-.91-3.42-.91-1.55,0-2.78,.45-3.68,1.36s-1.39,2.22-1.46,3.94c1.08-1.08,2.58-1.62,4.52-1.62,1.17,0,2.23,.23,3.18,.7Zm-1.84,7.18c.57-.49,.85-1.15,.85-1.98s-.28-1.5-.85-2-1.32-.74-2.26-.74-1.68,.26-2.27,.77c-.59,.51-.89,1.17-.89,1.97s.29,1.45,.86,1.96c.57,.5,1.36,.76,2.35,.76,.9,0,1.64-.24,2.21-.73Z"/><path class="e" d="M176.55,18.63c.96,.47,1.71,1.14,2.27,2,.56,.86,.83,1.86,.83,2.99,0,1.22-.3,2.29-.91,3.21-.61,.92-1.44,1.63-2.49,2.13s-2.22,.74-3.51,.74c-2.56,0-4.56-.78-6-2.35-1.45-1.57-2.17-3.8-2.17-6.71,0-2.07,.39-3.84,1.17-5.32,.78-1.48,1.88-2.6,3.28-3.37,1.4-.76,3.02-1.15,4.87-1.15,.97,0,1.91,.11,2.81,.33,.9,.22,1.66,.53,2.28,.93l-1.57,3.11c-.9-.61-2.04-.91-3.42-.91-1.55,0-2.78,.45-3.68,1.36s-1.39,2.22-1.46,3.94c1.08-1.08,2.58-1.62,4.52-1.62,1.17,0,2.23,.23,3.18,.7Zm-1.84,7.18c.57-.49,.85-1.15,.85-1.98s-.28-1.5-.85-2-1.32-.74-2.26-.74-1.68,.26-2.27,.77c-.59,.51-.89,1.17-.89,1.97s.29,1.45,.86,1.96c.57,.5,1.36,.76,2.35,.76,.9,0,1.64-.24,2.21-.73Z"/><path class="e" d="M197.93,25.55h-2.98v3.84h-4.12v-3.84h-9.84v-2.85l8.61-11.59h4.44l-7.99,10.99h4.91v-3.42h3.99v3.42h2.98v3.45Z"/></g><g><path class="e" d="M11.76,14.78c0-1.21,1.44-3.02,2.64-3.17,.41-.05,.94,.1,1.28,.35,.86,.61,1.44,1.49,1.82,2.47,.29,.75,0,1.37-.53,1.93-1.04,1.06-1.08,1.34-.22,2.58,1.19,1.74,2.65,3.23,4.32,4.52,.27,.21,.58,.38,.89,.53,.5,.25,.96,.21,1.35-.24,.19-.22,.41-.4,.63-.58,.54-.44,1.19-.59,1.77-.23,.8,.5,1.6,1.06,2.26,1.73,.65,.66,.62,1.47,.03,2.2-.42,.52-.9,1-1.42,1.43-.56,.46-1.26,.42-1.93,.3-1.9-.31-3.55-1.22-5.08-2.32-3.04-2.2-5.49-4.91-7.01-8.37-.42-.97-.64-2.03-.95-3.05l.16-.05Z"/><path class="e" d="M19.75,13.73v-.64c3.18-.42,7.54,2.67,7.33,7.3h-.67c-.05-1.81-.61-3.42-1.91-4.72-1.3-1.3-2.88-1.93-4.75-1.95Z"/><path class="e" d="M19.77,15.66v-.59c2.61-.49,5.61,2.48,5.34,5.28h-.64c-.27-2.83-1.81-4.41-4.7-4.69Z"/><path class="e" d="M19.81,17.67v-.61c1.58-.36,3.28,1.25,3.35,3.22h-.69c-.16-1.54-1.01-2.44-2.66-2.61Z"/></g></g></g></svg>