<?xml version="1.0" encoding="UTF-8"?><svg xmlns="http://www.w3.org/2000/svg" viewBox="0 0 237.86 39.86"><defs><style>.d{fill:#fff;}.e{letter-spacing:-.06em;}.f,.g{fill:#232323;}.h{letter-spacing:0em;}.i{letter-spacing:0em;}.j{fill:#fed605;}.g{font-family:Montserrat-Bold, Montserrat;font-size:26.1px;}.k{letter-spacing:0em;}.l{letter-spacing:0em;}</style></defs><g id="a"/><g id="b"><g id="c"><rect class="j" x="0" y="0" width="237.86" height="39.86" rx="19.93" ry="19.93"/><circle class="d" cx="20.65" cy="19.93" r="13.74"/><text class="g" transform="translate(53.31 29.38)"><tspan x="0" y="0">3</tspan><tspan class="k" x="15.45" y="0">0</tspan><tspan x="33.02" y="0">1</tspan><tspan class="e" x="43.25" y="0">7</tspan><tspan class="h" x="57.73" y="0">4</tspan><tspan x="75.66" y="0">5</tspan><tspan class="k" x="91.19" y="0">0</tspan><tspan class="i" x="108.75" y="0">1</tspan><tspan class="l" x="118.99" y="0">4</tspan><tspan x="136.86" y="0">9</tspan></text><g><path class="f" d="M11.76,14.78c0-1.21,1.44-3.02,2.64-3.17,.41-.05,.94,.1,1.28,.35,.86,.61,1.44,1.49,1.82,2.47,.29,.75,0,1.37-.53,1.93-1.04,1.06-1.08,1.34-.22,2.58,1.19,1.74,2.65,3.23,4.32,4.52,.27,.21,.58,.38,.89,.53,.5,.25,.96,.21,1.35-.24,.19-.22,.41-.4,.63-.58,.54-.44,1.19-.59,1.77-.23,.8,.5,1.6,1.06,2.26,1.73,.65,.66,.62,1.47,.03,2.2-.42,.52-.9,1-1.42,1.43-.56,.46-1.26,.42-1.93,.3-1.9-.31-3.55-1.22-5.08-2.32-3.04-2.2-5.49-4.91-7.01-8.37-.42-.97-.64-2.03-.95-3.05l.16-.05Z"/><path class="f" d="M19.75,13.73v-.64c3.18-.42,7.54,2.67,7.33,7.3h-.67c-.05-1.81-.61-3.42-1.91-4.72-1.3-1.3-2.88-1.93-4.75-1.95Z"/><path class="f" d="M19.77,15.66v-.59c2.61-.49,5.61,2.48,5.34,5.28h-.64c-.27-2.83-1.81-4.41-4.7-4.69Z"/><path class="f" d="M19.81,17.67v-.61c1.58-.36,3.28,1.25,3.35,3.22h-.69c-.16-1.54-1.01-2.44-2.66-2.61Z"/></g></g></g></svg>