<?xml version="1.0" encoding="UTF-8"?><svg xmlns="http://www.w3.org/2000/svg" viewBox="0 0 506.12 317.92"><defs><style>.d{fill:#fff;}.e{fill:none;stroke:#fff;stroke-miterlimit:10;}.f{fill:#02bae2;}.g{opacity:.36;}</style></defs><g id="a"/><g id="b"><g id="c"><g class="g"><path class="e" d="M23.95,105.73h25.01c5.98,0,11.26,1.14,15.85,3.42,4.59,2.28,8.15,5.49,10.7,9.64,2.54,4.14,3.81,8.97,3.81,14.47s-1.27,10.33-3.81,14.47c-2.54,4.14-6.11,7.35-10.7,9.64-4.59,2.28-9.87,3.42-15.85,3.42H23.95v-55.06Zm24.39,44.6c5.51,0,9.9-1.53,13.18-4.6,3.28-3.07,4.92-7.22,4.92-12.47s-1.64-9.4-4.92-12.47c-3.28-3.07-7.67-4.6-13.18-4.6h-11.64v34.14h11.64Z"/><path class="e" d="M88.92,105.73h12.74v55.06h-12.74v-55.06Z"/><path class="e" d="M149.81,160.79l-10.62-15.34h-11.72v15.34h-12.74v-55.06h23.83c4.88,0,9.11,.81,12.7,2.44,3.59,1.63,6.36,3.93,8.3,6.92,1.94,2.99,2.91,6.53,2.91,10.62s-.98,7.62-2.95,10.58c-1.97,2.96-4.76,5.23-8.38,6.8l12.35,17.7h-13.69Zm-3.22-42.2c-1.99-1.65-4.9-2.48-8.73-2.48h-10.38v19.19h10.38c3.83,0,6.74-.84,8.73-2.52,1.99-1.68,2.99-4.04,2.99-7.08s-1-5.47-2.99-7.12Z"/><path class="e" d="M215.17,150.57v10.23h-42.63v-55.06h41.61v10.23h-28.95v11.96h25.57v9.91h-25.57v12.74h29.97Z"/><path class="e" d="M236.29,158.08c-4.54-2.44-8.1-5.82-10.7-10.15s-3.89-9.22-3.89-14.67,1.3-10.34,3.89-14.67c2.6-4.33,6.16-7.71,10.7-10.15,4.53-2.44,9.64-3.66,15.3-3.66,4.77,0,9.09,.84,12.94,2.52,3.85,1.68,7.09,4.09,9.71,7.24l-8.18,7.55c-3.72-4.3-8.34-6.45-13.84-6.45-3.41,0-6.45,.75-9.12,2.24-2.67,1.49-4.76,3.58-6.25,6.25-1.49,2.67-2.24,5.72-2.24,9.12s.75,6.45,2.24,9.13c1.49,2.67,3.58,4.76,6.25,6.25,2.67,1.49,5.72,2.24,9.12,2.24,5.51,0,10.12-2.18,13.84-6.53l8.18,7.55c-2.62,3.2-5.87,5.64-9.75,7.32-3.88,1.68-8.21,2.52-12.98,2.52-5.61,0-10.69-1.22-15.22-3.66Z"/><path class="e" d="M292.77,158.08c-4.54-2.44-8.1-5.82-10.7-10.15s-3.89-9.22-3.89-14.67,1.3-10.34,3.89-14.67c2.6-4.33,6.16-7.71,10.7-10.15,4.53-2.44,9.64-3.66,15.3-3.66,4.77,0,9.09,.84,12.94,2.52,3.85,1.68,7.09,4.09,9.71,7.24l-8.18,7.55c-3.72-4.3-8.34-6.45-13.84-6.45-3.41,0-6.45,.75-9.12,2.24-2.67,1.49-4.76,3.58-6.25,6.25-1.49,2.67-2.24,5.72-2.24,9.12s.75,6.45,2.24,9.13c1.49,2.67,3.58,4.76,6.25,6.25,2.67,1.49,5.72,2.24,9.12,2.24,5.51,0,10.12-2.18,13.84-6.53l8.18,7.55c-2.62,3.2-5.87,5.64-9.75,7.32-3.88,1.68-8.21,2.52-12.98,2.52-5.61,0-10.69-1.22-15.22-3.66Z"/><path class="e" d="M339.3,105.73h12.74v55.06h-12.74v-55.06Z"/><path class="e" d="M376.31,158.04c-4.59-2.46-8.18-5.86-10.78-10.19s-3.89-9.19-3.89-14.59,1.3-10.27,3.89-14.59c2.6-4.33,6.19-7.72,10.78-10.19,4.59-2.46,9.74-3.7,15.46-3.7s10.86,1.23,15.42,3.7c4.56,2.47,8.15,5.86,10.78,10.19,2.62,4.33,3.93,9.19,3.93,14.59s-1.31,10.27-3.93,14.59c-2.62,4.33-6.21,7.72-10.78,10.19-4.56,2.47-9.7,3.7-15.42,3.7s-10.87-1.23-15.46-3.7Zm24.27-9.4c2.62-1.49,4.68-3.58,6.18-6.25,1.49-2.67,2.24-5.72,2.24-9.13s-.75-6.45-2.24-9.12c-1.49-2.67-3.55-4.76-6.18-6.25-2.62-1.49-5.56-2.24-8.81-2.24s-6.19,.75-8.81,2.24c-2.62,1.49-4.68,3.58-6.18,6.25-1.49,2.67-2.24,5.72-2.24,9.12s.75,6.45,2.24,9.13c1.49,2.67,3.55,4.76,6.18,6.25,2.62,1.49,5.56,2.24,8.81,2.24s6.19-.75,8.81-2.24Zm-5.35-58.72h13.22l-14.24,11.33h-9.6l10.62-11.33Z"/><path class="e" d="M481.99,105.73v55.06h-10.46l-27.45-33.43v33.43h-12.59v-55.06h10.54l27.37,33.43v-33.43h12.59Z"/></g><g><path class="f" d="M65.76,1.23V72.93h-13.62L16.39,29.4v43.53H0V1.23H13.73L49.37,44.76V1.23h16.39Z"/><path class="f" d="M90.7,65.66c-5.7-5.67-8.55-13.76-8.55-24.28V1.23h16.59V40.77c0,12.84,5.33,19.26,15.98,19.26,5.19,0,9.15-1.55,11.88-4.66,2.73-3.11,4.1-7.97,4.1-14.6V1.23h16.39V41.38c0,10.52-2.85,18.61-8.55,24.28-5.7,5.67-13.67,8.5-23.92,8.5s-18.22-2.83-23.92-8.5Z"/><path class="f" d="M219,59.62v13.32h-55.52V1.23h54.19V14.55h-37.7v15.57h33.29v12.91h-33.29v16.59h39.03Z"/><path class="f" d="M239.33,71.86c-5.29-1.54-9.54-3.53-12.75-5.99l5.63-12.5c3.07,2.25,6.73,4.06,10.96,5.43,4.23,1.37,8.47,2.05,12.7,2.05,4.71,0,8.19-.7,10.45-2.1,2.25-1.4,3.38-3.26,3.38-5.58,0-1.71-.67-3.12-2-4.25-1.33-1.13-3.04-2.03-5.12-2.71-2.08-.68-4.9-1.43-8.45-2.25-5.46-1.3-9.94-2.59-13.42-3.89-3.48-1.3-6.47-3.38-8.96-6.25-2.49-2.87-3.74-6.69-3.74-11.47,0-4.16,1.13-7.94,3.38-11.32s5.65-6.06,10.19-8.04c4.54-1.98,10.09-2.97,16.65-2.97,4.57,0,9.05,.55,13.42,1.64,4.37,1.09,8.19,2.66,11.47,4.71l-5.12,12.6c-6.62-3.75-13.25-5.63-19.87-5.63-4.64,0-8.08,.75-10.29,2.25-2.22,1.5-3.33,3.48-3.33,5.94s1.28,4.29,3.84,5.48c2.56,1.2,6.47,2.37,11.73,3.53,5.46,1.3,9.94,2.6,13.42,3.89,3.48,1.3,6.47,3.35,8.96,6.15,2.49,2.8,3.74,6.59,3.74,11.37,0,4.1-1.14,7.84-3.43,11.22-2.29,3.38-5.72,6.06-10.29,8.04-4.58,1.98-10.14,2.97-16.7,2.97-5.67,0-11.15-.77-16.44-2.31Z"/><path class="f" d="M311.39,14.75h-22.94V1.23h62.48V14.75h-22.94v58.18h-16.59V14.75Z"/><path class="f" d="M405.53,72.93l-13.83-19.97h-15.26v19.97h-16.59V1.23h31.04c6.35,0,11.86,1.06,16.54,3.18,4.68,2.12,8.28,5.12,10.81,9.01,2.53,3.89,3.79,8.5,3.79,13.83s-1.28,9.92-3.84,13.78c-2.56,3.86-6.2,6.81-10.91,8.86l16.08,23.05h-17.82Zm-4.2-54.96c-2.6-2.15-6.39-3.23-11.37-3.23h-13.52v24.99h13.52c4.98,0,8.77-1.09,11.37-3.28,2.59-2.18,3.89-5.26,3.89-9.22s-1.3-7.12-3.89-9.27Z"/><path class="f" d="M482.35,57.57h-33.29l-6.35,15.36h-17L457.67,1.23h16.39l32.06,71.7h-17.41l-6.35-15.36Zm-5.22-12.6l-11.37-27.45-11.37,27.45h22.74Z"/></g><g class="g"><path class="e" d="M23.95,184.32h25.01c5.98,0,11.26,1.14,15.85,3.42,4.59,2.28,8.15,5.49,10.7,9.64,2.54,4.14,3.81,8.97,3.81,14.47s-1.27,10.33-3.81,14.47c-2.54,4.14-6.11,7.35-10.7,9.64-4.59,2.28-9.87,3.42-15.85,3.42H23.95v-55.06Zm24.39,44.6c5.51,0,9.9-1.53,13.18-4.6,3.28-3.07,4.92-7.22,4.92-12.47s-1.64-9.4-4.92-12.47c-3.28-3.07-7.67-4.6-13.18-4.6h-11.64v34.14h11.64Z"/><path class="e" d="M88.92,184.32h12.74v55.06h-12.74v-55.06Z"/><path class="e" d="M149.81,239.38l-10.62-15.34h-11.72v15.34h-12.74v-55.06h23.83c4.88,0,9.11,.81,12.7,2.44,3.59,1.63,6.36,3.93,8.3,6.92,1.94,2.99,2.91,6.53,2.91,10.62s-.98,7.62-2.95,10.58c-1.97,2.96-4.76,5.23-8.38,6.8l12.35,17.7h-13.69Zm-3.22-42.2c-1.99-1.65-4.9-2.48-8.73-2.48h-10.38v19.19h10.38c3.83,0,6.74-.84,8.73-2.52,1.99-1.68,2.99-4.04,2.99-7.08s-1-5.47-2.99-7.12Z"/><path class="e" d="M215.17,229.16v10.23h-42.63v-55.06h41.61v10.23h-28.95v11.96h25.57v9.91h-25.57v12.74h29.97Z"/><path class="e" d="M236.29,236.67c-4.54-2.44-8.1-5.82-10.7-10.15s-3.89-9.22-3.89-14.67,1.3-10.34,3.89-14.67c2.6-4.33,6.16-7.71,10.7-10.15,4.53-2.44,9.64-3.66,15.3-3.66,4.77,0,9.09,.84,12.94,2.52,3.85,1.68,7.09,4.09,9.71,7.24l-8.18,7.55c-3.72-4.3-8.34-6.45-13.84-6.45-3.41,0-6.45,.75-9.12,2.24-2.67,1.49-4.76,3.58-6.25,6.25-1.49,2.67-2.24,5.72-2.24,9.12s.75,6.45,2.24,9.13c1.49,2.67,3.58,4.76,6.25,6.25,2.67,1.49,5.72,2.24,9.12,2.24,5.51,0,10.12-2.18,13.84-6.53l8.18,7.55c-2.62,3.2-5.87,5.64-9.75,7.32-3.88,1.68-8.21,2.52-12.98,2.52-5.61,0-10.69-1.22-15.22-3.66Z"/><path class="e" d="M292.77,236.67c-4.54-2.44-8.1-5.82-10.7-10.15s-3.89-9.22-3.89-14.67,1.3-10.34,3.89-14.67c2.6-4.33,6.16-7.71,10.7-10.15,4.53-2.44,9.64-3.66,15.3-3.66,4.77,0,9.09,.84,12.94,2.52,3.85,1.68,7.09,4.09,9.71,7.24l-8.18,7.55c-3.72-4.3-8.34-6.45-13.84-6.45-3.41,0-6.45,.75-9.12,2.24-2.67,1.49-4.76,3.58-6.25,6.25-1.49,2.67-2.24,5.72-2.24,9.12s.75,6.45,2.24,9.13c1.49,2.67,3.58,4.76,6.25,6.25,2.67,1.49,5.72,2.24,9.12,2.24,5.51,0,10.12-2.18,13.84-6.53l8.18,7.55c-2.62,3.2-5.87,5.64-9.75,7.32-3.88,1.68-8.21,2.52-12.98,2.52-5.61,0-10.69-1.22-15.22-3.66Z"/><path class="e" d="M339.3,184.32h12.74v55.06h-12.74v-55.06Z"/><path class="e" d="M376.31,236.63c-4.59-2.46-8.18-5.86-10.78-10.19s-3.89-9.19-3.89-14.59,1.3-10.27,3.89-14.59c2.6-4.33,6.19-7.72,10.78-10.19,4.59-2.46,9.74-3.7,15.46-3.7s10.86,1.23,15.42,3.7c4.56,2.47,8.15,5.86,10.78,10.19,2.62,4.33,3.93,9.19,3.93,14.59s-1.31,10.27-3.93,14.59c-2.62,4.33-6.21,7.72-10.78,10.19-4.56,2.47-9.7,3.7-15.42,3.7s-10.87-1.23-15.46-3.7Zm24.27-9.4c2.62-1.49,4.68-3.58,6.18-6.25,1.49-2.67,2.24-5.72,2.24-9.13s-.75-6.45-2.24-9.12c-1.49-2.67-3.55-4.76-6.18-6.25-2.62-1.49-5.56-2.24-8.81-2.24s-6.19,.75-8.81,2.24c-2.62,1.49-4.68,3.58-6.18,6.25-1.49,2.67-2.24,5.72-2.24,9.12s.75,6.45,2.24,9.13c1.49,2.67,3.55,4.76,6.18,6.25,2.62,1.49,5.56,2.24,8.81,2.24s6.19-.75,8.81-2.24Zm-5.35-58.72h13.22l-14.24,11.33h-9.6l10.62-11.33Z"/><path class="e" d="M481.99,184.32v55.06h-10.46l-27.45-33.43v33.43h-12.59v-55.06h10.54l27.37,33.43v-33.43h12.59Z"/></g><g class="g"><path class="e" d="M24.47,261.41h25.01c5.98,0,11.26,1.14,15.85,3.42,4.59,2.28,8.15,5.49,10.7,9.64,2.54,4.14,3.81,8.97,3.81,14.47s-1.27,10.33-3.81,14.47c-2.54,4.14-6.11,7.35-10.7,9.64-4.59,2.28-9.87,3.42-15.85,3.42H24.47v-55.06Zm24.39,44.6c5.51,0,9.9-1.53,13.18-4.6,3.28-3.07,4.92-7.22,4.92-12.47s-1.64-9.4-4.92-12.47c-3.28-3.07-7.67-4.6-13.18-4.6h-11.64v34.14h11.64Z"/><path class="e" d="M89.45,261.41h12.74v55.06h-12.74v-55.06Z"/><path class="e" d="M150.33,316.48l-10.62-15.34h-11.72v15.34h-12.74v-55.06h23.83c4.88,0,9.11,.81,12.7,2.44,3.59,1.63,6.36,3.93,8.3,6.92,1.94,2.99,2.91,6.53,2.91,10.62s-.98,7.62-2.95,10.58c-1.97,2.96-4.76,5.23-8.38,6.8l12.35,17.7h-13.69Zm-3.22-42.2c-1.99-1.65-4.9-2.48-8.73-2.48h-10.38v19.19h10.38c3.83,0,6.74-.84,8.73-2.52,1.99-1.68,2.99-4.04,2.99-7.08s-1-5.47-2.99-7.12Z"/><path class="e" d="M215.7,306.25v10.23h-42.63v-55.06h41.61v10.23h-28.95v11.96h25.57v9.91h-25.57v12.74h29.97Z"/><path class="e" d="M236.82,313.76c-4.54-2.44-8.1-5.82-10.7-10.15s-3.89-9.22-3.89-14.67,1.3-10.34,3.89-14.67c2.6-4.33,6.16-7.71,10.7-10.15,4.53-2.44,9.64-3.66,15.3-3.66,4.77,0,9.09,.84,12.94,2.52,3.85,1.68,7.09,4.09,9.71,7.24l-8.18,7.55c-3.72-4.3-8.34-6.45-13.84-6.45-3.41,0-6.45,.75-9.12,2.24-2.67,1.49-4.76,3.58-6.25,6.25-1.49,2.67-2.24,5.72-2.24,9.12s.75,6.45,2.24,9.13c1.49,2.67,3.58,4.76,6.25,6.25,2.67,1.49,5.72,2.24,9.12,2.24,5.51,0,10.12-2.18,13.84-6.53l8.18,7.55c-2.62,3.2-5.87,5.64-9.75,7.32-3.88,1.68-8.21,2.52-12.98,2.52-5.61,0-10.69-1.22-15.22-3.66Z"/><path class="e" d="M293.3,313.76c-4.54-2.44-8.1-5.82-10.7-10.15s-3.89-9.22-3.89-14.67,1.3-10.34,3.89-14.67c2.6-4.33,6.16-7.71,10.7-10.15,4.53-2.44,9.64-3.66,15.3-3.66,4.77,0,9.09,.84,12.94,2.52,3.85,1.68,7.09,4.09,9.71,7.24l-8.18,7.55c-3.72-4.3-8.34-6.45-13.84-6.45-3.41,0-6.45,.75-9.12,2.24-2.67,1.49-4.76,3.58-6.25,6.25-1.49,2.67-2.24,5.72-2.24,9.12s.75,6.45,2.24,9.13c1.49,2.67,3.58,4.76,6.25,6.25,2.67,1.49,5.72,2.24,9.12,2.24,5.51,0,10.12-2.18,13.84-6.53l8.18,7.55c-2.62,3.2-5.87,5.64-9.75,7.32-3.88,1.68-8.21,2.52-12.98,2.52-5.61,0-10.69-1.22-15.22-3.66Z"/><path class="e" d="M339.82,261.41h12.74v55.06h-12.74v-55.06Z"/><path class="e" d="M376.83,313.72c-4.59-2.46-8.18-5.86-10.78-10.19s-3.89-9.19-3.89-14.59,1.3-10.27,3.89-14.59c2.6-4.33,6.19-7.72,10.78-10.19,4.59-2.46,9.74-3.7,15.46-3.7s10.86,1.23,15.42,3.7c4.56,2.47,8.15,5.86,10.78,10.19,2.62,4.33,3.93,9.19,3.93,14.59s-1.31,10.27-3.93,14.59c-2.62,4.33-6.21,7.72-10.78,10.19-4.56,2.47-9.7,3.7-15.42,3.7s-10.87-1.23-15.46-3.7Zm24.27-9.4c2.62-1.49,4.68-3.58,6.18-6.25,1.49-2.67,2.24-5.72,2.24-9.13s-.75-6.45-2.24-9.12c-1.49-2.67-3.55-4.76-6.18-6.25-2.62-1.49-5.56-2.24-8.81-2.24s-6.19,.75-8.81,2.24c-2.62,1.49-4.68,3.58-6.18,6.25-1.49,2.67-2.24,5.72-2.24,9.12s.75,6.45,2.24,9.13c1.49,2.67,3.55,4.76,6.18,6.25,2.62,1.49,5.56,2.24,8.81,2.24s6.19-.75,8.81-2.24Zm-5.35-58.72h13.22l-14.24,11.33h-9.6l10.62-11.33Z"/><path class="e" d="M482.51,261.41v55.06h-10.46l-27.45-33.43v33.43h-12.59v-55.06h10.54l27.37,33.43v-33.43h12.59Z"/></g><g><path class="d" d="M180.93,64.99c5.33,0,7.07,2.66,7.07,6.24,0,2.41-.75,5.24-1.91,7.99-2.91,6.91-19.72,30.88-31.79,46.52,7.57-3.08,.75-1.83,25.71-9.65,15.4-4.83,39.45-9.24,60.5-12.07,1.25-4.33,1.83-8.57,1.83-12.65,0-9.99-3.41-18.97-8.74-25.63-7.07-8.99-34.45-25.63-74.07-25.63-20.22,0-43.61,4.33-69.07,16.23C32.3,83.47,25.64,113.93,25.64,126.41c0,3.75,.58,5.91,.58,5.91-1.17-3.16-1.75-6.41-1.75-9.82,0-24.05,28.54-53.43,72.07-72.74,23.38-10.32,49.27-14.48,72.57-14.48,26.13,0,49.1,5.16,61.83,12.48,17.39,9.99,23.97,26.63,23.97,42.11,0,4.33-.5,8.66-1.5,12.65,7.91-.92,14.98-1.42,20.39-1.58h2.41c19.39,0,25.8,6.57,25.8,6.57,0,0-7.91-4.91-22.8-4.91h-1.08c-5.58,.08-14.81,.75-25.3,1.91-.17,.75-.42,1.5-.67,2.25-6.33,18.23-33.04,42.36-60.92,56.67-23.14,11.9-56.42,18.72-75.4,18.72-3.91,0-7.24-.33-9.74-.92-10.99-2.66-12.32-6.49-12.32-8.24,0-.58,.17-.92,.17-.92,0,0,1.33,7.24,20.39,7.24,4.41,0,9.82-.33,16.39-1.33,34.7-5.16,81.14-32.12,98.95-53.93,4.83-5.99,8.16-11.98,10.15-17.98-15.65,2.16-32.12,4.99-43.44,8.32-22.55,6.58-33.79,12.48-47.19,17.98-10.74,14.9-25.63,35.79-29.13,36.12-.42,0-.83,.08-1.25,.08-4.41,0-6.41-2.58-6.41-6.41,0-8.99,11.15-25.13,27.55-31.21,14.06-19.14,26.46-39.36,38.95-59.42,1.33-2.16,1.75-3.75,1.75-4.74,0-1.42-.75-1.83-.75-1.83h1Zm-63.91,93.04c0,1.42,.83,2.25,2.66,2.25h.42c3.41-.17,7.74-12.32,15.15-22.97-7.32,3.16-18.23,15.65-18.23,20.72Z"/><path class="d" d="M266.57,111.1c2.5,0,3.75,3.33,3.75,3.33,0,0-.67,.58-1.58,1.58-.83,.92-11.82,14.23-11.82,15.15q0,.08,.08,.08c1.17-.42,16.89-11.23,16.89-11.23l1.08-.25s-18.56,16.15-23.8,16.15c-.42,0-.75-.08-1-.33s-.33-.58-.33-1c0-5.16,15.06-22.97,15.06-22.97,.58-.33,1.17-.5,1.66-.5Zm6.91-5.58c0,1-.83,1.83-1.83,1.83s-1.83-.83-1.83-1.83c0-1.08,.83-1.83,1.83-1.83s1.83,.75,1.83,1.83Z"/><path class="d" d="M281.97,108.27c.25-.17,.58-.25,.92-.25,1.58,0,4.16,1.5,4.83,3.16v.08c0,1.17-5.49,7.32-5.49,7.66,.42,0,4.16-3.75,7.16-5.58,1.58-.92,2.91-1.25,3.99-1.25,1.5,0,2.66,.58,3.58,.83,1.17,.42,1.58,.83,2.5,.83,.42,0,.83-.08,1.5-.25,.58-.17,1-.25,1.33-.25,1.17,0,1.58,.58,1.58,.58,0,0-.25-.08-.67-.08-.58,0-1.33,.08-2.5,.58-.42,.17-.83,.25-1.25,.25-1.41,0-3-.67-5.08-.67-.83,0-1.83,.08-2.91,.5-4.24,1.5-14.4,13.98-16.14,15.23-.83,.58-1.91,.92-3,.92-1.17,0-2.33-.5-2.83-1.58-.08-.17-.17-.42-.17-.75,0-2.66,3.91-8.66,5.91-11.49,2.25-3.16,4.41-7.07,6.74-8.49Z"/><path class="d" d="M303.02,128.16c0,.67,.42,.83,.83,.92,1.25,0,19.97-9.57,19.97-9.57l1.08,.08s-18.56,10.32-21.97,11.65c-.5,.17-1,.25-1.5,.25-1.66,0-3.25-1-3.25-3.25,0-2,1.17-4.99,4.49-9.07,4.24-5.16,8.32-6.99,11.15-6.99,2.41,0,4,1.33,4,2.91,0,.33-.08,.58-.17,.92-1.42,3.91-9.32,4.25-9.32,4.25-4.16,4.83-5.33,6.91-5.33,7.91Zm12.32-12.73c0-.42-.25-.75-.75-.75-.08,0-.25,0-.42,.08-2.08,.58-4.33,3.25-4.33,3.25,4.08-.08,5.49-1.67,5.49-2.58Z"/><path class="d" d="M331.9,118.17c-2,1.08-6.57,6.66-6.57,8.66,0,.33,.17,.58,.42,.67,.08,0,.17,.08,.25,.08,2.66,0,14.31-8.16,14.31-8.16l.75,.17s-12.15,9.65-16.06,9.82h-.25c-2.5,0-4.49-1.5-4.49-4.08,0-1.42,.67-3.08,2.08-5.08,3.25-4.41,7.07-6.33,9.82-6.33,2.16,0,3.66,1.25,3.66,3.41,0,.42,0,.92-.17,1.42-.33,1.33-1.42,1.58-2.25,1.58-.67,0-1.17-.17-1.17-.17,.83-.33,1.5-1.08,1.5-1.83,0-.25-.08-.42-.17-.67h-.25c-.33,0-.75,.17-1.42,.5Z"/><path class="d" d="M348.13,118.17c-2,1.08-6.57,6.66-6.57,8.66,0,.33,.17,.58,.42,.67,.08,0,.17,.08,.25,.08,2.66,0,14.31-8.16,14.31-8.16l.75,.17s-12.15,9.65-16.06,9.82h-.25c-2.5,0-4.49-1.5-4.49-4.08,0-1.42,.67-3.08,2.08-5.08,3.25-4.41,7.07-6.33,9.82-6.33,2.16,0,3.66,1.25,3.66,3.41,0,.42,0,.92-.17,1.42-.33,1.33-1.42,1.58-2.25,1.58-.67,0-1.17-.17-1.17-.17,.83-.33,1.5-1.08,1.5-1.83,0-.25-.08-.42-.17-.67h-.25c-.33,0-.75,.17-1.42,.5Z"/><path class="d" d="M364.11,111.1c2.5,0,3.75,3.33,3.75,3.33,0,0-.67,.58-1.58,1.58-.83,.92-11.82,14.23-11.82,15.15q0,.08,.08,.08c1.17-.42,16.89-11.23,16.89-11.23l1.08-.25s-18.56,16.15-23.8,16.15c-.42,0-.75-.08-1-.33s-.33-.58-.33-1c0-5.16,15.06-22.97,15.06-22.97,.58-.33,1.17-.5,1.66-.5Zm6.91-5.58c0,1-.83,1.83-1.83,1.83s-1.83-.83-1.83-1.83c0-1.08,.83-1.83,1.83-1.83s1.83,.75,1.83,1.83Z"/><path class="d" d="M382,124.58c-2.5,2.83-5.24,6.41-8.91,6.41-.25,0-.58-.08-.83-.08-2.33-.42-3.99-2.16-3.99-4.99,0-1.91,.75-4.33,2.58-7.07,4.41-6.74,8.9-8.49,12.65-8.74h.25c2.66,0,3.66,2.25,3.66,4.33,0,.75-.17,1.42-.33,2l-.08,.25c1.17,.58,2.41,.75,3.58,.75,2.25,0,4.25-.75,4.25-.75l.5,.17c-2,1.17-3.83,1.58-5.41,1.58-1.42,0-2.58-.33-3.5-.67-.67,.92-1.25,.92-1.25,.92,0,0-.5,2.91-3.16,5.91Zm.92-4.83c.17-.33,.17-.58,.17-.75,0-.33-.17-.5-.42-.5-.83,0-2.33,1-3.5,2.16-1.83,1.91-2.41,5.16-2.41,5.16,0,0,5.33-3.83,6.16-6.08Z"/><path class="d" d="M402.22,112.26c1.58,0,3.08,.42,3.41,1.17v.17c0,1.83-6.49,9.15-6.49,9.15,0,0,4.41-3.33,9.15-6.74,2.5-1.75,4.41-2.5,5.91-2.5,1.33,0,2.25,.67,2.83,1.75,.08,.17,.08,.33,.08,.5,0,2.75-5.99,10.15-5.99,10.9v.08c.08,.08,.25,.17,.42,.17,1,0,3.33-1,6.91-3.33,3.83-2.41,5.91-3.58,6.33-3.58q.08,0,.08,.08c-.08,.33-12.82,9.57-17.56,9.57-.58,0-1-.08-1.33-.42-.42-.5-.58-1.08-.58-1.83,0-3.33,3.83-8.65,3.83-9.49,0-.08-.08-.08-.08-.08h-.17c-1.58,.58-14.98,12.57-14.98,12.57h-.25c-.5,0-2.08-.08-3.58-1.17-.17-.08-.25-.33-.25-.58,0-3.08,8.41-14.81,8.41-14.81,.67-1.17,2.33-1.58,3.91-1.58Z"/></g></g></g></svg>