<?xml version="1.0" encoding="UTF-8"?><svg xmlns="http://www.w3.org/2000/svg" viewBox="0 0 520.69 406.75"><defs><style>.d{fill:#fff;}.e{fill:none;stroke:#fff;stroke-miterlimit:10;}.f{fill:#fed605;}.g{opacity:.36;}</style></defs><g id="a"/><g id="b"><g id="c"><g><path class="d" d="M53.98,142.89c5.12,2.32,9.06,5.61,11.83,9.87,2.76,4.26,4.15,9.31,4.15,15.14s-1.38,10.78-4.15,15.08c-2.77,4.3-6.71,7.59-11.83,9.87-5.12,2.28-11.16,3.42-18.11,3.42h-15.81v21.64H1.9v-78.48H35.87c6.95,0,12.99,1.16,18.11,3.47Zm-6.67,35.04c2.84-2.36,4.26-5.7,4.26-10.04s-1.42-7.79-4.26-10.15c-2.84-2.36-6.99-3.53-12.45-3.53h-14.8v27.25h14.8c5.46,0,9.6-1.18,12.45-3.53Z"/><path class="d" d="M132.86,217.9l-15.14-21.86h-16.71v21.86h-18.16v-78.48h33.97c6.95,0,12.99,1.16,18.11,3.47,5.12,2.32,9.06,5.61,11.83,9.87,2.76,4.26,4.15,9.31,4.15,15.14s-1.4,10.86-4.2,15.08c-2.8,4.22-6.78,7.46-11.94,9.7l17.6,25.23h-19.51Zm-4.6-60.15c-2.84-2.36-6.99-3.53-12.45-3.53h-14.8v27.36h14.8c5.46,0,9.6-1.19,12.45-3.59,2.84-2.39,4.26-5.75,4.26-10.09s-1.42-7.79-4.26-10.15Z"/><path class="d" d="M181.24,213.97c-6.54-3.51-11.66-8.35-15.36-14.52-3.7-6.17-5.55-13.1-5.55-20.8s1.85-14.63,5.55-20.8,8.82-11.01,15.36-14.52c6.54-3.51,13.88-5.27,22.03-5.27s15.47,1.76,21.98,5.27,11.62,8.35,15.36,14.52c3.74,6.17,5.61,13.1,5.61,20.8s-1.87,14.63-5.61,20.8c-3.74,6.17-8.86,11.01-15.36,14.52-6.5,3.51-13.83,5.27-21.98,5.27s-15.49-1.76-22.03-5.27Zm34.59-13.4c3.74-2.13,6.67-5.1,8.8-8.91,2.13-3.81,3.2-8.15,3.2-13.01s-1.06-9.19-3.2-13.01c-2.13-3.81-5.06-6.78-8.8-8.91-3.74-2.13-7.92-3.2-12.56-3.2s-8.82,1.06-12.56,3.2c-3.74,2.13-6.67,5.1-8.8,8.91-2.13,3.81-3.2,8.15-3.2,13.01s1.07,9.19,3.2,13.01c2.13,3.81,5.06,6.78,8.8,8.91,3.74,2.13,7.92,3.2,12.56,3.2s8.82-1.06,12.56-3.2Z"/><path class="d" d="M331.31,217.9l-.11-47.09-23.1,38.79h-8.18l-22.99-37.79v46.08h-17.04v-78.48h15.02l29.38,48.77,28.93-48.77h14.91l.22,78.48h-17.04Z"/><path class="d" d="M382.95,213.97c-6.54-3.51-11.66-8.35-15.36-14.52-3.7-6.17-5.55-13.1-5.55-20.8s1.85-14.63,5.55-20.8,8.82-11.01,15.36-14.52c6.54-3.51,13.88-5.27,22.03-5.27s15.47,1.76,21.98,5.27,11.62,8.35,15.36,14.52c3.74,6.17,5.61,13.1,5.61,20.8s-1.87,14.63-5.61,20.8c-3.74,6.17-8.86,11.01-15.36,14.52-6.5,3.51-13.83,5.27-21.98,5.27s-15.49-1.76-22.03-5.27Zm34.59-13.4c3.74-2.13,6.67-5.1,8.8-8.91,2.13-3.81,3.2-8.15,3.2-13.01s-1.06-9.19-3.2-13.01c-2.13-3.81-5.06-6.78-8.8-8.91-3.74-2.13-7.92-3.2-12.56-3.2s-8.82,1.06-12.56,3.2c-3.74,2.13-6.67,5.1-8.8,8.91-2.13,3.81-3.2,8.15-3.2,13.01s1.07,9.19,3.2,13.01c2.13,3.81,5.06,6.78,8.8,8.91,3.74,2.13,7.92,3.2,12.56,3.2s8.82-1.06,12.56-3.2Z"/><path class="d" d="M469.39,216.72c-5.79-1.68-10.45-3.87-13.96-6.56l6.17-13.68c3.36,2.47,7.36,4.45,12,5.94,4.63,1.5,9.27,2.24,13.9,2.24,5.16,0,8.97-.77,11.44-2.3,2.47-1.53,3.7-3.57,3.7-6.11,0-1.87-.73-3.42-2.19-4.65-1.46-1.23-3.33-2.22-5.61-2.97-2.28-.75-5.36-1.57-9.25-2.47-5.98-1.42-10.88-2.84-14.69-4.26s-7.08-3.7-9.81-6.84c-2.73-3.14-4.09-7.32-4.09-12.56,0-4.56,1.23-8.69,3.7-12.39,2.47-3.7,6.18-6.63,11.16-8.8,4.97-2.17,11.04-3.25,18.22-3.25,5.01,0,9.9,.6,14.69,1.79,4.78,1.2,8.97,2.92,12.56,5.16l-5.61,13.79c-7.25-4.11-14.5-6.17-21.75-6.17-5.08,0-8.84,.82-11.27,2.46-2.43,1.65-3.64,3.81-3.64,6.5s1.4,4.69,4.21,6c2.8,1.31,7.08,2.6,12.84,3.87,5.98,1.42,10.88,2.84,14.69,4.26,3.81,1.42,7.08,3.66,9.81,6.73,2.73,3.06,4.09,7.21,4.09,12.45,0,4.48-1.25,8.58-3.76,12.28-2.5,3.7-6.26,6.63-11.27,8.8-5.01,2.17-11.1,3.25-18.28,3.25-6.21,0-12.2-.84-18-2.52Z"/></g><g><path class="f" d="M34.42,83.97c0-18.56,28.71-47.1,55.84-62.25C107.98,11.82,135.28,0,156.25,0c11.4,0,20.97,3.58,26.05,12.82,1.75,3.25,2.58,7.41,2.58,12.15,0,34.2-39.11,101.2-39.11,101.2,0,0,61.5-65.66,83.22-87.96,14.31-14.65,23.22-21.8,29.54-21.8,3.25,0,5.74,1.91,7.99,5.58,.25,.5,.42,1.17,.42,2.08,0,16.23-43.11,98.12-50.6,115.43-3.99,9.24-5.49,14.98-5.49,18.81s1.42,5.83,3.33,7.66c.5,.5,.75,1.17,.75,1.91,0,3-3.58,7.41-6.74,7.41-2.16,0-4.24-2-4.91-7.66-.08-.75-.08-1.5-.08-2.25,0-17.64,19.39-57.09,31.21-83.39,9.57-21.22,18.81-42.28,18.81-50.02,0-2.08-.58-3.16-2-3.16-.67,0-1.58,.25-2.66,.83-11.9,6.16-88.71,85.38-98.12,96.54-9.32,11.07-8.82,8.41-16.98,24.47-7.66,14.98-11.4,25.55-17.39,25.55-.33,0-.75-.08-1.17-.17-3.66-.83-5.99-3-5.99-6.24,0-2.58,1.5-5.83,4.99-9.57,7.91-8.41,41.03-68.16,55.34-110.6,2.66-7.91,3.99-14.73,3.99-20.56,0-14.56-8.16-22.47-24.05-22.47-12.15,0-28.71,4.66-49.6,14.4-59.25,27.63-65.16,63.67-65.16,63.67v-.67Z"/><path class="f" d="M258.12,86.38c.58,0,1.25,.17,2,.75,1.75,1.33,1.83,3.83,1.83,3.83,0,0-.25-.25-1-.33-.67,0-6.41,7.74-6.41,8.49v.08c.5,0,5.83-3.33,9.49-5.74,1.33-1.83,2.58-3.16,2.58-3.16,.33-.33,.83-.5,1.42-.5,.5,0,1.17,.17,1.75,.58,1,.67,1.58,1.5,1.58,1.75,0,.08,0,.17-.08,.17h-.08c-.5,0-5.08,5.99-5.08,6.82q0,.08,.08,.08c.75-.08,10.32-4.83,10.32-4.83h.92s-6.82,3.25-11.07,6.41c-2,1.5-3.33,2.08-4.33,2.08-1.17,0-1.83-.75-2.25-1.83,0-.08-.08-.17-.08-.33,0-1,1.25-3,2.58-4.99-2.66,1.75-6.49,4.16-8.82,5.58-2.16,1.33-3.66,2.08-4.74,2.08-.83,0-1.33-.5-1.66-1.42v-.25c0-2.66,9.49-14.56,9.49-14.56,.33-.42,.92-.75,1.58-.75Z"/><path class="f" d="M274.35,102.45c0,.67,.42,.83,.83,.92,1.25,0,19.97-9.57,19.97-9.57l1.08,.08s-18.56,10.32-21.97,11.65c-.5,.17-1,.25-1.5,.25-1.66,0-3.25-1-3.25-3.25,0-2,1.17-4.99,4.49-9.07,4.24-5.16,8.32-6.99,11.15-6.99,2.41,0,4,1.33,4,2.91,0,.33-.08,.58-.17,.92-1.42,3.91-9.32,4.25-9.32,4.25-4.16,4.83-5.33,6.91-5.33,7.91Zm12.32-12.73c0-.42-.25-.75-.75-.75-.08,0-.25,0-.42,.08-2.08,.58-4.33,3.25-4.33,3.25,4.08-.08,5.49-1.67,5.49-2.58Z"/><path class="f" d="M299.57,90.88c-.92,0-1.66,.5-1.66,2.16v.17c0,2.83,2.33,2.83,3.33,4.83l10.24-4.08,.17,.42-10.15,4.41c.08,.33,.17,.83,.17,1.41v.67c-.58,5.24-8.41,5.91-10.82,6.24h-.42c-.83,0-1.42-.42-1.42-1.08,0-.92,.92-2.33,3.08-3.83,3.99-2.75,6.41-3.16,6.41-3.16,0,0-4.91-3.16-4.91-7.07,0-.33,0-.67,.08-1,.83-4.16,5.83-6.41,8.65-6.41h.58c1.08,.17,1.58,1.25,1.58,2.5,0,1.83-1,4.08-2.25,4.83,0,0-1.5-1-2.66-1Z"/><path class="f" d="M339.26,59.17c2.66,0,4.16,2.5,4.16,4.41,0,.75-.25,1.42-.67,1.75-1.75,1.42-2.75,.92-6.16,3.91-.58,.58-1.58,1.67-2.75,3.08,10.24-.75,24.63-1.91,29.79-1.91,1.08,0,1.75,.08,1.91,.17,.17,.17,.33,.42,.33,.75,0,1.66-2.83,5.24-4,5.74-.83,.33-1.42,.33-1.75,.33h-.33s-1.83-2.91-7.99-3.41c-.67-.08-1.42-.08-2.41-.08-4.24,0-11.23,.42-17.56,.92-7.41,9.4-20.14,27.05-22.3,30.62-.33,.5-.42,.83-.42,1.08s.08,.33,.33,.33c1.17,0,4.66-2,8.82-4.49,6.74-3.91,11.98-7.82,12.4-8.07,.08-.08,.17-.08,.25-.08,.25,0,.42,.25,.42,.25-4,3.66-15.23,13.48-23.63,15.15-.67,.17-1.17,.17-1.67,.17-2.58,0-2.16-2.08-2.41-3.83v-.08c0-1.08,2.33-5.58,3.41-7.24,6.33-9.07,10.99-15.65,16.48-23.22-2.33,.17-4.16,.25-5.08,.25-4.24,.17-6.24,.67-7.91,.83-1.75,.17-5.24,1.17-6.33,2.41-.58,.67-1.08,.83-1.41,.83s-.58-.17-.58-.17c0,0-.5-1.58-.5-3.16,0-.92,.17-1.83,.75-2.33,1.08-1,7.66-1.08,13.65-1.08h7.24c.5,0,1.17-.08,2-.08l2.41-3.33c1.58-2.16,2.25-2.75,5.16-6.49,2.91-3.83,5.58-3.83,5.58-3.83,.25-.08,.5-.08,.75-.08Z"/><path class="f" d="M338.35,82.56c.25-.17,.58-.25,.92-.25,1.58,0,4.16,1.5,4.83,3.16v.08c0,1.17-5.49,7.32-5.49,7.66,.42,0,4.16-3.75,7.16-5.58,1.58-.92,2.91-1.25,3.99-1.25,1.5,0,2.66,.58,3.58,.83,1.17,.42,1.58,.83,2.5,.83,.42,0,.83-.08,1.5-.25,.58-.17,1-.25,1.33-.25,1.17,0,1.58,.58,1.58,.58,0,0-.25-.08-.67-.08-.58,0-1.33,.08-2.5,.58-.42,.17-.83,.25-1.25,.25-1.41,0-3-.67-5.08-.67-.83,0-1.83,.08-2.91,.5-4.24,1.5-14.4,13.98-16.14,15.23-.83,.58-1.91,.92-3,.92-1.17,0-2.33-.5-2.83-1.58-.08-.17-.17-.42-.17-.75,0-2.66,3.91-8.66,5.91-11.49,2.25-3.16,4.41-7.07,6.74-8.49Z"/><path class="f" d="M371.72,112.77c10.82-6.49,19.06-15.48,23.14-18.89l.83,.33c0,.08-23.38,24.63-30.46,24.63-.42,0-.75-.08-1.08-.25-.33-.25-.5-.75-.5-1.33,0-3.74,5.99-13.23,10.74-20.22-.08-.33-.17-.58-.25-.83l-2,1.58c-4.16,3.41-10.82,8.49-12.65,8.82h-.5c-1.75,0-4.25-1.17-4.25-4.58v-.17c0-3.75,4-12.65,9.74-14.31,.92-.25,1.66-.33,2.41-.33,1.25,0,2.25,.33,3.08,.83l.08,.08c1.91,1.25,3.25,3.99,3.99,6.24,1.66-1.25,3.25-2.5,4.66-3.58,.92-1.25,1.5-2.08,1.5-2.08,.92-1.41,1.91-2,2.83-2,1.5,0,2.58,1.58,2.58,3.58v.58c0,.08-11.82,16.31-13.9,21.89Zm-1.08-20.31c-1.08,0-2.33,.42-3.66,1.83-2.5,2.75-4,5.91-4,7.24,0,.33,.08,.5,.25,.58h.08c.75,0,5.58-3.66,10.24-7.32-.58-1.33-1.33-1.91-2-2.25-.25-.08-.58-.08-.92-.08Zm5.24,2.33l-1.33,1.08c.08,.25,.08,.5,.17,.67,.42-.58,.83-1.17,1.17-1.75Z"/><path class="f" d="M395.36,90.88c-.92,0-1.66,.5-1.66,2.16v.17c0,2.83,2.33,2.83,3.33,4.83l10.24-4.08,.17,.42-10.15,4.41c.08,.33,.17,.83,.17,1.41v.67c-.58,5.24-8.41,5.91-10.82,6.24h-.42c-.83,0-1.42-.42-1.42-1.08,0-.92,.92-2.33,3.08-3.83,3.99-2.75,6.41-3.16,6.41-3.16,0,0-4.91-3.16-4.91-7.07,0-.33,0-.67,.08-1,.83-4.16,5.83-6.41,8.65-6.41h.58c1.08,.17,1.58,1.25,1.58,2.5,0,1.83-1,4.08-2.25,4.83,0,0-1.5-1-2.66-1Z"/></g><g class="g"><path class="e" d="M52.58,236.39c5.12,2.32,9.06,5.61,11.83,9.87,2.76,4.26,4.15,9.31,4.15,15.14s-1.38,10.78-4.15,15.08c-2.77,4.3-6.71,7.59-11.83,9.87-5.12,2.28-11.16,3.42-18.11,3.42h-15.81v21.64H.5v-78.48H34.47c6.95,0,12.99,1.16,18.11,3.47Zm-6.67,35.04c2.84-2.36,4.26-5.7,4.26-10.04s-1.42-7.79-4.26-10.15c-2.84-2.36-6.99-3.53-12.45-3.53h-14.8v27.25h14.8c5.46,0,9.6-1.18,12.45-3.53Z"/><path class="e" d="M131.46,311.4l-15.14-21.86h-16.71v21.86h-18.16v-78.48h33.97c6.95,0,12.99,1.16,18.11,3.47,5.12,2.32,9.06,5.61,11.83,9.87,2.76,4.26,4.15,9.31,4.15,15.14s-1.4,10.86-4.2,15.08c-2.8,4.22-6.78,7.46-11.94,9.7l17.6,25.23h-19.51Zm-4.6-60.15c-2.84-2.36-6.99-3.53-12.45-3.53h-14.8v27.36h14.8c5.46,0,9.6-1.19,12.45-3.59,2.84-2.39,4.26-5.75,4.26-10.09s-1.42-7.79-4.26-10.15Z"/><path class="e" d="M179.84,307.47c-6.54-3.51-11.66-8.35-15.36-14.52-3.7-6.17-5.55-13.1-5.55-20.8s1.85-14.63,5.55-20.8,8.82-11.01,15.36-14.52c6.54-3.51,13.88-5.27,22.03-5.27s15.47,1.76,21.98,5.27,11.62,8.35,15.36,14.52c3.74,6.17,5.61,13.1,5.61,20.8s-1.87,14.63-5.61,20.8c-3.74,6.17-8.86,11.01-15.36,14.52-6.5,3.51-13.83,5.27-21.98,5.27s-15.49-1.76-22.03-5.27Zm34.59-13.4c3.74-2.13,6.67-5.1,8.8-8.91,2.13-3.81,3.2-8.15,3.2-13.01s-1.06-9.19-3.2-13.01c-2.13-3.81-5.06-6.78-8.8-8.91-3.74-2.13-7.92-3.2-12.56-3.2s-8.82,1.06-12.56,3.2c-3.74,2.13-6.67,5.1-8.8,8.91-2.13,3.81-3.2,8.15-3.2,13.01s1.07,9.19,3.2,13.01c2.13,3.81,5.06,6.78,8.8,8.91,3.74,2.13,7.92,3.2,12.56,3.2s8.82-1.06,12.56-3.2Z"/><path class="e" d="M329.91,311.4l-.11-47.09-23.1,38.79h-8.18l-22.99-37.79v46.08h-17.04v-78.48h15.02l29.38,48.77,28.93-48.77h14.91l.22,78.48h-17.04Z"/><path class="e" d="M381.54,307.47c-6.54-3.51-11.66-8.35-15.36-14.52-3.7-6.17-5.55-13.1-5.55-20.8s1.85-14.63,5.55-20.8,8.82-11.01,15.36-14.52c6.54-3.51,13.88-5.27,22.03-5.27s15.47,1.76,21.98,5.27,11.62,8.35,15.36,14.52c3.74,6.17,5.61,13.1,5.61,20.8s-1.87,14.63-5.61,20.8c-3.74,6.17-8.86,11.01-15.36,14.52-6.5,3.51-13.83,5.27-21.98,5.27s-15.49-1.76-22.03-5.27Zm34.59-13.4c3.74-2.13,6.67-5.1,8.8-8.91,2.13-3.81,3.2-8.15,3.2-13.01s-1.06-9.19-3.2-13.01c-2.13-3.81-5.06-6.78-8.8-8.91-3.74-2.13-7.92-3.2-12.56-3.2s-8.82,1.06-12.56,3.2c-3.74,2.13-6.67,5.1-8.8,8.91-2.13,3.81-3.2,8.15-3.2,13.01s1.07,9.19,3.2,13.01c2.13,3.81,5.06,6.78,8.8,8.91,3.74,2.13,7.92,3.2,12.56,3.2s8.82-1.06,12.56-3.2Z"/><path class="e" d="M467.99,310.22c-5.79-1.68-10.45-3.87-13.96-6.56l6.17-13.68c3.36,2.47,7.36,4.45,12,5.94,4.63,1.5,9.27,2.24,13.9,2.24,5.16,0,8.97-.77,11.44-2.3,2.47-1.53,3.7-3.57,3.7-6.11,0-1.87-.73-3.42-2.19-4.65-1.46-1.23-3.33-2.22-5.61-2.97-2.28-.75-5.36-1.57-9.25-2.47-5.98-1.42-10.88-2.84-14.69-4.26s-7.08-3.7-9.81-6.84c-2.73-3.14-4.09-7.32-4.09-12.56,0-4.56,1.23-8.69,3.7-12.39,2.47-3.7,6.18-6.63,11.16-8.8,4.97-2.17,11.04-3.25,18.22-3.25,5.01,0,9.9,.6,14.69,1.79,4.78,1.2,8.97,2.92,12.56,5.16l-5.61,13.79c-7.25-4.11-14.5-6.17-21.75-6.17-5.08,0-8.84,.82-11.27,2.46-2.43,1.65-3.64,3.81-3.64,6.5s1.4,4.69,4.21,6c2.8,1.31,7.08,2.6,12.84,3.87,5.98,1.42,10.88,2.84,14.69,4.26,3.81,1.42,7.08,3.66,9.81,6.73,2.73,3.06,4.09,7.21,4.09,12.45,0,4.48-1.25,8.58-3.76,12.28-2.5,3.7-6.26,6.63-11.27,8.8-5.01,2.17-11.1,3.25-18.28,3.25-6.21,0-12.2-.84-18-2.52Z"/></g><g class="g"><path class="e" d="M52.58,329.89c5.12,2.32,9.06,5.61,11.83,9.87,2.76,4.26,4.15,9.31,4.15,15.14s-1.38,10.78-4.15,15.08c-2.77,4.3-6.71,7.59-11.83,9.87-5.12,2.28-11.16,3.42-18.11,3.42h-15.81v21.64H.5v-78.48H34.47c6.95,0,12.99,1.16,18.11,3.47Zm-6.67,35.04c2.84-2.36,4.26-5.7,4.26-10.04s-1.42-7.79-4.26-10.15c-2.84-2.36-6.99-3.53-12.45-3.53h-14.8v27.25h14.8c5.46,0,9.6-1.18,12.45-3.53Z"/><path class="e" d="M131.46,404.9l-15.14-21.86h-16.71v21.86h-18.16v-78.48h33.97c6.95,0,12.99,1.16,18.11,3.47,5.12,2.32,9.06,5.61,11.83,9.87,2.76,4.26,4.15,9.31,4.15,15.14s-1.4,10.86-4.2,15.08c-2.8,4.22-6.78,7.46-11.94,9.7l17.6,25.23h-19.51Zm-4.6-60.15c-2.84-2.36-6.99-3.53-12.45-3.53h-14.8v27.36h14.8c5.46,0,9.6-1.19,12.45-3.59,2.84-2.39,4.26-5.75,4.26-10.09s-1.42-7.79-4.26-10.15Z"/><path class="e" d="M179.84,400.98c-6.54-3.51-11.66-8.35-15.36-14.52-3.7-6.17-5.55-13.1-5.55-20.8s1.85-14.63,5.55-20.8,8.82-11.01,15.36-14.52c6.54-3.51,13.88-5.27,22.03-5.27s15.47,1.76,21.98,5.27,11.62,8.35,15.36,14.52c3.74,6.17,5.61,13.1,5.61,20.8s-1.87,14.63-5.61,20.8c-3.74,6.17-8.86,11.01-15.36,14.52-6.5,3.51-13.83,5.27-21.98,5.27s-15.49-1.76-22.03-5.27Zm34.59-13.4c3.74-2.13,6.67-5.1,8.8-8.91,2.13-3.81,3.2-8.15,3.2-13.01s-1.06-9.19-3.2-13.01c-2.13-3.81-5.06-6.78-8.8-8.91-3.74-2.13-7.92-3.2-12.56-3.2s-8.82,1.06-12.56,3.2c-3.74,2.13-6.67,5.1-8.8,8.91-2.13,3.81-3.2,8.15-3.2,13.01s1.07,9.19,3.2,13.01c2.13,3.81,5.06,6.78,8.8,8.91,3.74,2.13,7.92,3.2,12.56,3.2s8.82-1.06,12.56-3.2Z"/><path class="e" d="M329.91,404.9l-.11-47.09-23.1,38.79h-8.18l-22.99-37.79v46.08h-17.04v-78.48h15.02l29.38,48.77,28.93-48.77h14.91l.22,78.48h-17.04Z"/><path class="e" d="M381.54,400.98c-6.54-3.51-11.66-8.35-15.36-14.52-3.7-6.17-5.55-13.1-5.55-20.8s1.85-14.63,5.55-20.8,8.82-11.01,15.36-14.52c6.54-3.51,13.88-5.27,22.03-5.27s15.47,1.76,21.98,5.27,11.62,8.35,15.36,14.52c3.74,6.17,5.61,13.1,5.61,20.8s-1.87,14.63-5.61,20.8c-3.74,6.17-8.86,11.01-15.36,14.52-6.5,3.51-13.83,5.27-21.98,5.27s-15.49-1.76-22.03-5.27Zm34.59-13.4c3.74-2.13,6.67-5.1,8.8-8.91,2.13-3.81,3.2-8.15,3.2-13.01s-1.06-9.19-3.2-13.01c-2.13-3.81-5.06-6.78-8.8-8.91-3.74-2.13-7.92-3.2-12.56-3.2s-8.82,1.06-12.56,3.2c-3.74,2.13-6.67,5.1-8.8,8.91-2.13,3.81-3.2,8.15-3.2,13.01s1.07,9.19,3.2,13.01c2.13,3.81,5.06,6.78,8.8,8.91,3.74,2.13,7.92,3.2,12.56,3.2s8.82-1.06,12.56-3.2Z"/><path class="e" d="M467.99,403.72c-5.79-1.68-10.45-3.87-13.96-6.56l6.17-13.68c3.36,2.47,7.36,4.45,12,5.94,4.63,1.5,9.27,2.24,13.9,2.24,5.16,0,8.97-.77,11.44-2.3,2.47-1.53,3.7-3.57,3.7-6.11,0-1.87-.73-3.42-2.19-4.65-1.46-1.23-3.33-2.22-5.61-2.97-2.28-.75-5.36-1.57-9.25-2.47-5.98-1.42-10.88-2.84-14.69-4.26s-7.08-3.7-9.81-6.84c-2.73-3.14-4.09-7.32-4.09-12.56,0-4.56,1.23-8.69,3.7-12.39,2.47-3.7,6.18-6.63,11.16-8.8,4.97-2.17,11.04-3.25,18.22-3.25,5.01,0,9.9,.6,14.69,1.79,4.78,1.2,8.97,2.92,12.56,5.16l-5.61,13.79c-7.25-4.11-14.5-6.17-21.75-6.17-5.08,0-8.84,.82-11.27,2.46-2.43,1.65-3.64,3.81-3.64,6.5s1.4,4.69,4.21,6c2.8,1.31,7.08,2.6,12.84,3.87,5.98,1.42,10.88,2.84,14.69,4.26,3.81,1.42,7.08,3.66,9.81,6.73,2.73,3.06,4.09,7.21,4.09,12.45,0,4.48-1.25,8.58-3.76,12.28-2.5,3.7-6.26,6.63-11.27,8.8-5.01,2.17-11.1,3.25-18.28,3.25-6.21,0-12.2-.84-18-2.52Z"/></g></g></g></svg>