<?xml version="1.0" encoding="UTF-8"?><svg xmlns="http://www.w3.org/2000/svg" viewBox="0 0 979.87 464.25"><defs><style>.d{fill:#fff;}.e{fill:none;stroke:#fff;stroke-miterlimit:10;}.f{fill:#fed605;}.g{opacity:.36;}</style></defs><g id="a"/><g id="b"><g id="c"><g><path class="f" d="M131.94,226.28c-28.2,47.37-62.63,125.14-62.63,125.14,0,0-2.81,4.15-7.45,4.15-2.69,0-5.98-1.34-9.77-5.62-.49-.61-.85-1.71-.85-3.05,0-12.82,21.36-56.52,43.22-98.4,3.78-12.45,11.48-41.14,11.48-66.9,0-10.25-1.22-20.02-4.4-28.2-6.1,.98-19.9,2.81-35.65,2.81-10.25,0-21.24-.73-31.62-3.05-5.01-.73-21.36-4.03-22.22-14.41v-.98c0-10.5,12.33-19.9,33.45-19.9,2.44,0,4.88,.12,7.57,.37,17.82,1.59,39.43,7.33,50.67,24.91,46.03-9.16,151.75-32.11,211.21-34.55,4.52-.12,8.79-.24,12.82-.24,46.64,0,65.32,11.11,65.32,24.05,0,.85-.12,1.83-.24,2.69-2.81,15.02-20.39,15.02-20.39,15.02,0,0,.86-1.95,.86-4.88,0-6.35-4.4-16.73-32.72-18.8-9.16-.61-19.9-.98-31.74-.98-41.39,0-96.2,4.15-143.33,14.28l-57.38,12.33c2.32,6.47,3.3,15.26,3.3,24.66,0,21.37-4.88,47-10.26,61.41,20.02-38.09,33.94-64.09,40.29-76.18,2.44-4.64,7.45-6.1,12.7-6.1,8.3,0,17.21,3.66,17.21,3.66,0,0-11.23,19.29-39.43,66.78Zm-35.04-81.8c-.61-.86-1.1-1.59-1.83-2.32-11.84-13.43-31.86-19.04-48.59-19.04s-29.42,5.25-29.42,13.67c0,1.95,.61,4.03,2.08,6.1,0,0,2.93,3.66,11.6,5.62,.37,.12,7.94,1.22,20.02,1.22,14.77,0,25.76-1.22,46.15-5.25Z"/><path class="f" d="M156.61,221.89c.85,0,1.83,.24,2.93,1.1,2.56,1.95,2.69,5.62,2.69,5.62,0,0-.37-.37-1.47-.49-.98,0-9.4,11.35-9.4,12.45v.12c.73,0,8.55-4.88,13.92-8.42,1.95-2.69,3.78-4.64,3.78-4.64,.49-.49,1.22-.73,2.08-.73,.73,0,1.71,.24,2.56,.86,1.47,.98,2.32,2.2,2.32,2.56,0,.12,0,.24-.12,.24h-.12c-.73,0-7.45,8.79-7.45,10.01q0,.12,.12,.12c1.1-.12,15.14-7.08,15.14-7.08h1.34s-10.01,4.76-16.24,9.4c-2.93,2.2-4.88,3.05-6.35,3.05-1.71,0-2.69-1.1-3.3-2.69,0-.12-.12-.24-.12-.49,0-1.47,1.83-4.4,3.78-7.32-3.91,2.56-9.52,6.1-12.94,8.18-3.17,1.95-5.37,3.05-6.96,3.05-1.22,0-1.95-.73-2.44-2.08v-.37c0-3.91,13.92-21.36,13.92-21.36,.49-.61,1.34-1.1,2.32-1.1Z"/><path class="f" d="M185.79,228.48c-1.34,0-2.44,.73-2.44,3.17v.24c0,4.15,3.42,4.15,4.88,7.08l15.02-5.98,.24,.61-14.89,6.47c.12,.49,.24,1.22,.24,2.07v.98c-.86,7.69-12.33,8.67-15.87,9.16h-.61c-1.22,0-2.08-.61-2.08-1.59,0-1.34,1.34-3.42,4.52-5.62,5.86-4.03,9.4-4.64,9.4-4.64,0,0-7.2-4.64-7.2-10.38,0-.49,0-.98,.12-1.47,1.22-6.1,8.55-9.4,12.7-9.4h.86c1.59,.24,2.32,1.83,2.32,3.66,0,2.69-1.46,5.98-3.3,7.08,0,0-2.2-1.47-3.91-1.47Z"/><path class="f" d="M317.76,113.48c4.52,0,8.91,2.69,9.89,12.57v.98c0,13.31-24.17,44.68-54.21,82.41,37.36-14.16,80.94-24.54,118.79-31.38l43.95-76.55s10.5-6.84,18.31-6.84c4.15,0,7.45,1.83,8.42,7.2l-44.93,71.91c19.29-2.93,35.89-4.64,47.49-5.37,4.27-.24,8.18-.37,11.84-.37,34.79,0,41.02,10.99,41.02,10.99-5.74-4.64-19.04-6.71-37.24-6.71s-41.51,2.08-66.54,6.1c-19.53,27.1-37.6,51.89-45.66,64.95-16.36,26.61-72.39,103.16-72.39,141.37,0,13.19,6.59,21.73,23.93,22.22h2.2c67.15,0,158.34-78.01,186.91-109.63,15.38-16.85,20.02-29.67,20.02-38.58,0-7.94-3.78-12.94-7.08-15.02-7.2-4.64-11.6-3.17-13.06-4.15-.24-.24-.37-.37-.37-.49,0-.85,2.44-1.22,2.44-1.22,12.45,2.2,21,9.03,21,20.88,0,20.75-26.49,56.89-104.87,110.36-45.9,31.25-79.36,42.85-102.43,42.85-28.93,0-41.39-18.19-41.39-38.82,0-6.96,1.47-14.28,4.15-21.12,10.13-25.51,59.21-104.02,101.09-169.09-16.48,3.17-33.33,7.08-49.81,11.6-31.86,8.67-55.67,16.85-72.64,23.32-19.53,24.42-37.11,45.17-42.85,52.25-5.37,6.59-10.13,9.4-13.79,9.4-4.64,0-7.57-4.27-7.57-10.99,0-3.17,.61-6.84,2.08-10.74,6.96-18.92,34.31-33.33,34.31-33.33l-.12,.37c4.88-2.56,10.13-5.13,15.63-7.57,22.46-34.06,39.07-60.92,46.88-73.37,6.35-10.13,8.18-16.36,8.18-20.27,0-5.13-3.05-6.1-3.05-6.1,0,0,5.86-4.03,11.48-4.03Zm-85.22,119.64c-19.53,12.7-25.39,24.66-25.39,32.11,0,5.01,2.68,8.06,5.49,8.06h.12c3.17-.24,18.56-21.73,36.26-48.22-10.74,4.76-15.87,7.69-16.48,8.06Z"/><path class="f" d="M409.21,220.43c3.66,0,5.49,4.88,5.49,4.88,0,0-.98,.86-2.32,2.32-1.22,1.34-17.34,20.88-17.34,22.22q0,.12,.12,.12c1.71-.61,24.78-16.48,24.78-16.48l1.59-.37s-27.22,23.69-34.92,23.69c-.61,0-1.1-.12-1.47-.49s-.49-.86-.49-1.47c0-7.57,22.1-33.69,22.1-33.69,.85-.49,1.71-.73,2.44-.73Zm10.13-8.18c0,1.47-1.22,2.69-2.68,2.69s-2.69-1.22-2.69-2.69c0-1.59,1.22-2.69,2.69-2.69s2.68,1.1,2.68,2.69Z"/><path class="f" d="M426.18,228.48c-1.34,0-2.44,.73-2.44,3.17v.24c0,4.15,3.42,4.15,4.88,7.08l15.02-5.98,.24,.61-14.89,6.47c.12,.49,.24,1.22,.24,2.07v.98c-.86,7.69-12.33,8.67-15.87,9.16h-.61c-1.22,0-2.08-.61-2.08-1.59,0-1.34,1.34-3.42,4.52-5.62,5.86-4.03,9.4-4.64,9.4-4.64,0,0-7.2-4.64-7.2-10.38,0-.49,0-.98,.12-1.47,1.22-6.1,8.55-9.4,12.7-9.4h.86c1.59,.24,2.32,1.83,2.32,3.66,0,2.69-1.46,5.98-3.3,7.08,0,0-2.2-1.47-3.91-1.47Z"/><path class="f" d="M484.42,181.97c3.91,0,6.1,3.66,6.1,6.47,0,1.1-.37,2.08-.98,2.56-2.56,2.08-4.03,1.34-9.03,5.74-.86,.86-2.32,2.44-4.03,4.52,15.02-1.1,36.14-2.81,43.71-2.81,1.59,0,2.56,.12,2.81,.24,.24,.24,.49,.61,.49,1.1,0,2.44-4.15,7.69-5.86,8.42-1.22,.49-2.08,.49-2.56,.49h-.49s-2.69-4.27-11.72-5.01c-.98-.12-2.08-.12-3.54-.12-6.23,0-16.48,.61-25.76,1.34-10.86,13.79-29.54,39.68-32.72,44.93-.49,.73-.61,1.22-.61,1.59s.12,.49,.49,.49c1.71,0,6.84-2.93,12.94-6.59,9.89-5.74,17.58-11.48,18.19-11.84,.12-.12,.24-.12,.37-.12,.37,0,.61,.37,.61,.37-5.86,5.37-22.34,19.78-34.67,22.22-.98,.24-1.71,.24-2.44,.24-3.78,0-3.17-3.05-3.54-5.62v-.12c0-1.59,3.42-8.18,5.01-10.62,9.28-13.31,16.12-22.95,24.17-34.06-3.42,.24-6.1,.37-7.45,.37-6.23,.24-9.16,.98-11.6,1.22-2.56,.24-7.69,1.71-9.28,3.54-.85,.98-1.59,1.22-2.07,1.22s-.86-.24-.86-.24c0,0-.73-2.32-.73-4.64,0-1.34,.24-2.69,1.1-3.42,1.59-1.47,11.23-1.59,20.02-1.59h10.62c.73,0,1.71-.12,2.93-.12l3.54-4.88c2.32-3.17,3.3-4.03,7.57-9.52,4.27-5.62,8.18-5.62,8.18-5.62,.37-.12,.73-.12,1.1-.12Z"/><path class="f" d="M486.74,240.2c-3.66,4.15-7.69,9.4-13.06,9.4-.37,0-.85-.12-1.22-.12-3.42-.61-5.86-3.17-5.86-7.33,0-2.81,1.1-6.35,3.78-10.38,6.47-9.89,13.06-12.45,18.56-12.82h.37c3.91,0,5.37,3.3,5.37,6.35,0,1.1-.24,2.08-.49,2.93l-.12,.37c1.71,.86,3.54,1.1,5.25,1.1,3.3,0,6.23-1.1,6.23-1.1l.73,.24c-2.93,1.71-5.62,2.32-7.94,2.32-2.08,0-3.78-.49-5.13-.98-.98,1.34-1.83,1.34-1.83,1.34,0,0-.73,4.27-4.64,8.67Zm1.34-7.08c.24-.49,.24-.85,.24-1.1,0-.49-.24-.73-.61-.73-1.22,0-3.42,1.47-5.13,3.17-2.68,2.81-3.54,7.57-3.54,7.57,0,0,7.81-5.62,9.03-8.91Z"/><path class="f" d="M516.4,216.27c.37-.24,.86-.37,1.34-.37,2.32,0,6.1,2.2,7.08,4.64v.12c0,1.71-8.06,10.74-8.06,11.23,.61,0,6.1-5.49,10.5-8.18,2.32-1.34,4.27-1.83,5.86-1.83,2.2,0,3.91,.86,5.25,1.22,1.71,.61,2.32,1.22,3.66,1.22,.61,0,1.22-.12,2.2-.37,.86-.24,1.47-.37,1.95-.37,1.71,0,2.32,.86,2.32,.86,0,0-.37-.12-.98-.12-.85,0-1.95,.12-3.66,.85-.61,.24-1.22,.37-1.83,.37-2.07,0-4.4-.98-7.45-.98-1.22,0-2.69,.12-4.27,.73-6.23,2.2-21.12,20.51-23.68,22.34-1.22,.86-2.81,1.34-4.4,1.34-1.71,0-3.42-.73-4.15-2.32-.12-.24-.24-.61-.24-1.1,0-3.91,5.74-12.7,8.67-16.85,3.3-4.64,6.47-10.38,9.89-12.45Z"/><path class="f" d="M557.67,220.43c3.66,0,5.49,4.88,5.49,4.88,0,0-.98,.86-2.32,2.32-1.22,1.34-17.34,20.88-17.34,22.22q0,.12,.12,.12c1.71-.61,24.78-16.48,24.78-16.48l1.59-.37s-27.22,23.69-34.92,23.69c-.61,0-1.1-.12-1.47-.49s-.49-.86-.49-1.47c0-7.57,22.1-33.69,22.1-33.69,.85-.49,1.71-.73,2.44-.73Zm10.13-8.18c0,1.47-1.22,2.69-2.68,2.69s-2.69-1.22-2.69-2.69c0-1.59,1.22-2.69,2.69-2.69s2.68,1.1,2.68,2.69Z"/><path class="f" d="M587.34,260.59c15.87-9.52,27.96-22.71,33.94-27.71l1.22,.49c0,.12-34.31,36.14-44.68,36.14-.61,0-1.1-.12-1.59-.37-.49-.37-.73-1.1-.73-1.95,0-5.49,8.79-19.41,15.75-29.67-.12-.49-.24-.85-.37-1.22l-2.93,2.32c-6.1,5.01-15.87,12.45-18.56,12.94h-.73c-2.56,0-6.23-1.71-6.23-6.71v-.24c0-5.49,5.86-18.56,14.28-21,1.34-.37,2.44-.49,3.54-.49,1.83,0,3.3,.49,4.52,1.22l.12,.12c2.81,1.83,4.76,5.86,5.86,9.16,2.44-1.83,4.76-3.66,6.84-5.25,1.34-1.83,2.2-3.05,2.2-3.05,1.34-2.07,2.81-2.93,4.15-2.93,2.2,0,3.78,2.32,3.78,5.25v.86c0,.12-17.34,23.93-20.39,32.11Zm-1.59-29.79c-1.59,0-3.42,.61-5.37,2.69-3.66,4.03-5.86,8.67-5.86,10.62,0,.49,.12,.73,.37,.86h.12c1.1,0,8.18-5.37,15.02-10.74-.86-1.95-1.95-2.81-2.93-3.3-.37-.12-.86-.12-1.34-.12Zm7.69,3.42l-1.95,1.59c.12,.37,.12,.73,.24,.98,.61-.86,1.22-1.71,1.71-2.56Z"/><path class="f" d="M622.01,228.48c-1.34,0-2.44,.73-2.44,3.17v.24c0,4.15,3.42,4.15,4.88,7.08l15.02-5.98,.24,.61-14.89,6.47c.12,.49,.24,1.22,.24,2.07v.98c-.86,7.69-12.33,8.67-15.87,9.16h-.61c-1.22,0-2.08-.61-2.08-1.59,0-1.34,1.34-3.42,4.52-5.62,5.86-4.03,9.4-4.64,9.4-4.64,0,0-7.2-4.64-7.2-10.38,0-.49,0-.98,.12-1.47,1.22-6.1,8.55-9.4,12.7-9.4h.86c1.59,.24,2.32,1.83,2.32,3.66,0,2.69-1.46,5.98-3.3,7.08,0,0-2.2-1.47-3.91-1.47Z"/></g><g class="g"><path class="e" d="M63.5,222.45H27.06l-6.95,16.82H1.5l34.98-78.49h17.94l35.09,78.49h-19.06l-6.95-16.82Zm-5.72-13.79l-12.45-30.05-12.45,30.05h24.89Z"/><path class="e" d="M112.44,235.4c-6.47-3.48-11.55-8.3-15.25-14.46s-5.55-13.14-5.55-20.91,1.85-14.74,5.55-20.91c3.7-6.17,8.78-10.99,15.25-14.46,6.46-3.48,13.73-5.21,21.81-5.21,6.8,0,12.95,1.2,18.44,3.59,5.49,2.39,10.11,5.83,13.85,10.32l-11.66,10.76c-5.31-6.13-11.88-9.19-19.73-9.19-4.86,0-9.19,1.07-13.01,3.2-3.81,2.13-6.78,5.1-8.91,8.91-2.13,3.81-3.2,8.15-3.2,13.01s1.07,9.19,3.2,13.01c2.13,3.81,5.1,6.78,8.91,8.91,3.81,2.13,8.15,3.2,13.01,3.2,7.85,0,14.43-3.1,19.73-9.31l11.66,10.76c-3.74,4.56-8.37,8.04-13.9,10.43-5.53,2.39-11.7,3.59-18.5,3.59-8,0-15.23-1.74-21.7-5.21Z"/><path class="e" d="M193.06,235.34c-6.54-3.51-11.66-8.35-15.36-14.52s-5.55-13.1-5.55-20.8,1.85-14.63,5.55-20.8c3.7-6.17,8.82-11,15.36-14.52,6.54-3.51,13.88-5.27,22.03-5.27s15.47,1.76,21.98,5.27c6.5,3.51,11.62,8.35,15.36,14.52,3.74,6.17,5.61,13.1,5.61,20.8s-1.87,14.63-5.61,20.8c-3.74,6.17-8.86,11.01-15.36,14.52-6.5,3.51-13.83,5.27-21.98,5.27s-15.49-1.76-22.03-5.27Zm34.59-13.4c3.74-2.13,6.67-5.1,8.8-8.91,2.13-3.81,3.2-8.15,3.2-13.01s-1.06-9.19-3.2-13.01c-2.13-3.81-5.06-6.78-8.8-8.91-3.74-2.13-7.92-3.2-12.56-3.2s-8.82,1.07-12.56,3.2c-3.74,2.13-6.67,5.1-8.8,8.91-2.13,3.81-3.2,8.15-3.2,13.01s1.07,9.19,3.2,13.01c2.13,3.81,5.06,6.78,8.8,8.91,3.74,2.13,7.92,3.2,12.56,3.2s8.82-1.07,12.56-3.2Z"/><path class="e" d="M343.13,239.26l-.11-47.09-23.1,38.79h-8.18l-22.99-37.79v46.08h-17.04v-78.49h15.02l29.38,48.77,28.93-48.77h14.91l.22,78.49h-17.04Z"/><path class="e" d="M430.87,164.25c5.12,2.32,9.06,5.61,11.83,9.87,2.76,4.26,4.15,9.31,4.15,15.14s-1.38,10.78-4.15,15.08c-2.77,4.3-6.71,7.59-11.83,9.87-5.12,2.28-11.16,3.42-18.11,3.42h-15.81v21.64h-18.16v-78.49h33.97c6.95,0,12.99,1.16,18.11,3.48Zm-6.67,35.04c2.84-2.35,4.26-5.7,4.26-10.04s-1.42-7.79-4.26-10.15c-2.84-2.35-6.99-3.53-12.45-3.53h-14.8v27.25h14.8c5.46,0,9.6-1.18,12.45-3.53Z"/><path class="e" d="M507.5,222.45h-36.44l-6.95,16.82h-18.61l34.98-78.49h17.94l35.09,78.49h-19.06l-6.95-16.82Zm-5.72-13.79l-12.45-30.05-12.45,30.05h24.89Z"/><path class="e" d="M613.68,160.78v78.49h-14.91l-39.13-47.65v47.65h-17.94v-78.49h15.02l39.02,47.65v-47.65h17.94Zm-32.91-7.23c-1.53-.79-3.23-1.85-5.1-3.2-1.2-.9-2.19-1.57-2.97-2.02-.78-.45-1.55-.67-2.3-.67-1.57,0-2.84,.54-3.81,1.63-.97,1.08-1.5,2.63-1.57,4.65h-8.86c.15-5.01,1.4-8.99,3.76-11.94,2.35-2.95,5.47-4.43,9.36-4.43,1.94,0,3.68,.39,5.21,1.18,1.53,.78,3.27,1.89,5.21,3.31,1.2,.9,2.19,1.57,2.97,2.02,.79,.45,1.55,.67,2.3,.67,1.5,0,2.75-.54,3.76-1.63,1.01-1.08,1.55-2.56,1.63-4.43h8.86c-.15,4.86-1.4,8.75-3.76,11.66-2.36,2.92-5.48,4.37-9.36,4.37-2.02,0-3.79-.39-5.33-1.18Z"/><path class="e" d="M683.98,222.45h-36.44l-6.95,16.82h-18.61l34.98-78.49h17.94l35.09,78.49h-19.06l-6.95-16.82Zm-5.72-13.79l-12.45-30.05-12.45,30.05h24.89Z"/><path class="e" d="M789.6,239.26l-.11-47.09-23.1,38.79h-8.18l-22.99-37.79v46.08h-17.04v-78.49h15.02l29.38,48.77,28.93-48.77h14.91l.22,78.49h-17.04Z"/><path class="e" d="M841.23,235.34c-6.54-3.51-11.66-8.35-15.36-14.52s-5.55-13.1-5.55-20.8,1.85-14.63,5.55-20.8c3.7-6.17,8.82-11,15.36-14.52,6.54-3.51,13.88-5.27,22.03-5.27s15.47,1.76,21.98,5.27c6.5,3.51,11.62,8.35,15.36,14.52,3.74,6.17,5.61,13.1,5.61,20.8s-1.87,14.63-5.61,20.8c-3.74,6.17-8.86,11.01-15.36,14.52-6.5,3.51-13.83,5.27-21.98,5.27s-15.49-1.76-22.03-5.27Zm34.59-13.4c3.74-2.13,6.67-5.1,8.8-8.91,2.13-3.81,3.2-8.15,3.2-13.01s-1.06-9.19-3.2-13.01c-2.13-3.81-5.06-6.78-8.8-8.91-3.74-2.13-7.92-3.2-12.56-3.2s-8.82,1.07-12.56,3.2c-3.74,2.13-6.67,5.1-8.8,8.91-2.13,3.81-3.2,8.15-3.2,13.01s1.07,9.19,3.2,13.01c2.13,3.81,5.06,6.78,8.8,8.91,3.74,2.13,7.92,3.2,12.56,3.2s8.82-1.07,12.56-3.2Z"/><path class="e" d="M927.68,238.09c-5.79-1.68-10.45-3.87-13.96-6.56l6.17-13.68c3.36,2.47,7.36,4.45,12,5.94,4.63,1.5,9.27,2.24,13.9,2.24,5.16,0,8.97-.77,11.44-2.3,2.47-1.53,3.7-3.57,3.7-6.11,0-1.87-.73-3.42-2.19-4.65-1.46-1.23-3.33-2.22-5.61-2.97-2.28-.75-5.36-1.57-9.25-2.47-5.98-1.42-10.88-2.84-14.69-4.26-3.81-1.42-7.08-3.7-9.81-6.84-2.73-3.14-4.09-7.32-4.09-12.56,0-4.56,1.23-8.69,3.7-12.39s6.18-6.63,11.16-8.8c4.97-2.17,11.04-3.25,18.22-3.25,5.01,0,9.9,.6,14.69,1.79,4.78,1.2,8.97,2.92,12.56,5.16l-5.61,13.79c-7.25-4.11-14.5-6.17-21.75-6.17-5.08,0-8.84,.82-11.27,2.47-2.43,1.65-3.64,3.81-3.64,6.5s1.4,4.69,4.21,6c2.8,1.31,7.08,2.6,12.84,3.87,5.98,1.42,10.88,2.84,14.69,4.26,3.81,1.42,7.08,3.66,9.81,6.73,2.73,3.07,4.09,7.21,4.09,12.45,0,4.49-1.25,8.58-3.76,12.28-2.5,3.7-6.26,6.63-11.27,8.8-5.01,2.17-11.1,3.25-18.28,3.25-6.21,0-12.2-.84-18-2.52Z"/></g><g><path class="d" d="M64.4,84.88H27.96l-6.95,16.82H2.4L37.38,23.21h17.94l35.09,78.49h-19.06l-6.95-16.82Zm-5.72-13.79l-12.45-30.05-12.45,30.05h24.89Z"/><path class="d" d="M113.34,97.83c-6.47-3.48-11.55-8.3-15.25-14.46s-5.55-13.14-5.55-20.91,1.85-14.74,5.55-20.91c3.7-6.17,8.78-10.99,15.25-14.46,6.46-3.48,13.73-5.21,21.81-5.21,6.8,0,12.95,1.2,18.44,3.59,5.49,2.39,10.11,5.83,13.85,10.32l-11.66,10.76c-5.31-6.13-11.88-9.19-19.73-9.19-4.86,0-9.19,1.07-13.01,3.2-3.81,2.13-6.78,5.1-8.91,8.91-2.13,3.81-3.2,8.15-3.2,13.01s1.07,9.19,3.2,13.01c2.13,3.81,5.1,6.78,8.91,8.91,3.81,2.13,8.15,3.2,13.01,3.2,7.85,0,14.43-3.1,19.73-9.31l11.66,10.76c-3.74,4.56-8.37,8.04-13.9,10.43-5.53,2.39-11.7,3.59-18.5,3.59-8,0-15.23-1.74-21.7-5.21Z"/><path class="d" d="M193.95,97.77c-6.54-3.51-11.66-8.35-15.36-14.52s-5.55-13.1-5.55-20.8,1.85-14.63,5.55-20.8c3.7-6.17,8.82-11,15.36-14.52,6.54-3.51,13.88-5.27,22.03-5.27s15.47,1.76,21.98,5.27c6.5,3.51,11.62,8.35,15.36,14.52,3.74,6.17,5.61,13.1,5.61,20.8s-1.87,14.63-5.61,20.8c-3.74,6.17-8.86,11.01-15.36,14.52-6.5,3.51-13.83,5.27-21.98,5.27s-15.49-1.76-22.03-5.27Zm34.59-13.4c3.74-2.13,6.67-5.1,8.8-8.91,2.13-3.81,3.2-8.15,3.2-13.01s-1.06-9.19-3.2-13.01c-2.13-3.81-5.06-6.78-8.8-8.91-3.74-2.13-7.92-3.2-12.56-3.2s-8.82,1.07-12.56,3.2c-3.74,2.13-6.67,5.1-8.8,8.91-2.13,3.81-3.2,8.15-3.2,13.01s1.07,9.19,3.2,13.01c2.13,3.81,5.06,6.78,8.8,8.91,3.74,2.13,7.92,3.2,12.56,3.2s8.82-1.07,12.56-3.2Z"/><path class="d" d="M344.03,101.7l-.11-47.09-23.1,38.79h-8.18l-22.99-37.79v46.08h-17.04V23.21h15.02l29.38,48.77,28.93-48.77h14.91l.22,78.49h-17.04Z"/><path class="d" d="M431.76,26.69c5.12,2.32,9.06,5.61,11.83,9.87,2.76,4.26,4.15,9.31,4.15,15.14s-1.38,10.78-4.15,15.08c-2.77,4.3-6.71,7.59-11.83,9.87-5.12,2.28-11.16,3.42-18.11,3.42h-15.81v21.64h-18.16V23.21h33.97c6.95,0,12.99,1.16,18.11,3.48Zm-6.67,35.04c2.84-2.35,4.26-5.7,4.26-10.04s-1.42-7.79-4.26-10.15c-2.84-2.35-6.99-3.53-12.45-3.53h-14.8v27.25h14.8c5.46,0,9.6-1.18,12.45-3.53Z"/><path class="d" d="M508.4,84.88h-36.44l-6.95,16.82h-18.61l34.98-78.49h17.94l35.09,78.49h-19.06l-6.95-16.82Zm-5.72-13.79l-12.45-30.05-12.45,30.05h24.89Z"/><path class="d" d="M614.58,23.21V101.7h-14.91l-39.13-47.65v47.65h-17.94V23.21h15.02l39.02,47.65V23.21h17.94Zm-32.91-7.23c-1.53-.79-3.23-1.85-5.1-3.2-1.2-.9-2.19-1.57-2.97-2.02-.78-.45-1.55-.67-2.3-.67-1.57,0-2.84,.54-3.81,1.63-.97,1.08-1.5,2.63-1.57,4.65h-8.86c.15-5.01,1.4-8.99,3.76-11.94,2.35-2.95,5.47-4.43,9.36-4.43,1.94,0,3.68,.39,5.21,1.18,1.53,.78,3.27,1.89,5.21,3.31,1.2,.9,2.19,1.57,2.97,2.02,.79,.45,1.55,.67,2.3,.67,1.5,0,2.75-.54,3.76-1.63,1.01-1.08,1.55-2.56,1.63-4.43h8.86c-.15,4.86-1.4,8.75-3.76,11.66-2.36,2.92-5.48,4.37-9.36,4.37-2.02,0-3.79-.39-5.33-1.18Z"/><path class="d" d="M684.88,84.88h-36.44l-6.95,16.82h-18.61l34.98-78.49h17.94l35.09,78.49h-19.06l-6.95-16.82Zm-5.72-13.79l-12.45-30.05-12.45,30.05h24.89Z"/><path class="d" d="M790.5,101.7l-.11-47.09-23.1,38.79h-8.18l-22.99-37.79v46.08h-17.04V23.21h15.02l29.38,48.77,28.93-48.77h14.91l.22,78.49h-17.04Z"/><path class="d" d="M842.13,97.77c-6.54-3.51-11.66-8.35-15.36-14.52s-5.55-13.1-5.55-20.8,1.85-14.63,5.55-20.8c3.7-6.17,8.82-11,15.36-14.52,6.54-3.51,13.88-5.27,22.03-5.27s15.47,1.76,21.98,5.27c6.5,3.51,11.62,8.35,15.36,14.52,3.74,6.17,5.61,13.1,5.61,20.8s-1.87,14.63-5.61,20.8c-3.74,6.17-8.86,11.01-15.36,14.52-6.5,3.51-13.83,5.27-21.98,5.27s-15.49-1.76-22.03-5.27Zm34.59-13.4c3.74-2.13,6.67-5.1,8.8-8.91,2.13-3.81,3.2-8.15,3.2-13.01s-1.06-9.19-3.2-13.01c-2.13-3.81-5.06-6.78-8.8-8.91-3.74-2.13-7.92-3.2-12.56-3.2s-8.82,1.07-12.56,3.2c-3.74,2.13-6.67,5.1-8.8,8.91-2.13,3.81-3.2,8.15-3.2,13.01s1.07,9.19,3.2,13.01c2.13,3.81,5.06,6.78,8.8,8.91,3.74,2.13,7.92,3.2,12.56,3.2s8.82-1.07,12.56-3.2Z"/><path class="d" d="M928.57,100.52c-5.79-1.68-10.45-3.87-13.96-6.56l6.17-13.68c3.36,2.47,7.36,4.45,12,5.94,4.63,1.5,9.27,2.24,13.9,2.24,5.16,0,8.97-.77,11.44-2.3,2.47-1.53,3.7-3.57,3.7-6.11,0-1.87-.73-3.42-2.19-4.65-1.46-1.23-3.33-2.22-5.61-2.97-2.28-.75-5.36-1.57-9.25-2.47-5.98-1.42-10.88-2.84-14.69-4.26-3.81-1.42-7.08-3.7-9.81-6.84-2.73-3.14-4.09-7.32-4.09-12.56,0-4.56,1.23-8.69,3.7-12.39s6.18-6.63,11.16-8.8c4.97-2.17,11.04-3.25,18.22-3.25,5.01,0,9.9,.6,14.69,1.79,4.78,1.2,8.97,2.92,12.56,5.16l-5.61,13.79c-7.25-4.11-14.5-6.17-21.75-6.17-5.08,0-8.84,.82-11.27,2.47-2.43,1.65-3.64,3.81-3.64,6.5s1.4,4.69,4.21,6c2.8,1.31,7.08,2.6,12.84,3.87,5.98,1.42,10.88,2.84,14.69,4.26,3.81,1.42,7.08,3.66,9.81,6.73,2.73,3.07,4.09,7.21,4.09,12.45,0,4.49-1.25,8.58-3.76,12.28-2.5,3.7-6.26,6.63-11.27,8.8-5.01,2.17-11.1,3.25-18.28,3.25-6.21,0-12.2-.84-18-2.52Z"/></g><g class="g"><path class="e" d="M62.77,334.01H26.33l-6.95,16.82H.77l34.98-78.49h17.94l35.09,78.49h-19.06l-6.95-16.82Zm-5.72-13.79l-12.45-30.05-12.45,30.05h24.89Z"/><path class="e" d="M111.72,346.96c-6.47-3.48-11.55-8.3-15.25-14.46s-5.55-13.14-5.55-20.91,1.85-14.74,5.55-20.91c3.7-6.17,8.78-10.99,15.25-14.46,6.46-3.48,13.73-5.21,21.81-5.21,6.8,0,12.95,1.2,18.44,3.59,5.49,2.39,10.11,5.83,13.85,10.32l-11.66,10.76c-5.31-6.13-11.88-9.19-19.73-9.19-4.86,0-9.19,1.07-13.01,3.2-3.81,2.13-6.78,5.1-8.91,8.91-2.13,3.81-3.2,8.15-3.2,13.01s1.07,9.19,3.2,13.01c2.13,3.81,5.1,6.78,8.91,8.91,3.81,2.13,8.15,3.2,13.01,3.2,7.85,0,14.43-3.1,19.73-9.31l11.66,10.76c-3.74,4.56-8.37,8.04-13.9,10.43-5.53,2.39-11.7,3.59-18.5,3.59-8,0-15.23-1.74-21.7-5.21Z"/><path class="e" d="M192.33,346.91c-6.54-3.51-11.66-8.35-15.36-14.52s-5.55-13.1-5.55-20.8,1.85-14.63,5.55-20.8c3.7-6.17,8.82-11,15.36-14.52,6.54-3.51,13.88-5.27,22.03-5.27s15.47,1.76,21.98,5.27c6.5,3.51,11.62,8.35,15.36,14.52,3.74,6.17,5.61,13.1,5.61,20.8s-1.87,14.63-5.61,20.8c-3.74,6.17-8.86,11.01-15.36,14.52-6.5,3.51-13.83,5.27-21.98,5.27s-15.49-1.76-22.03-5.27Zm34.59-13.4c3.74-2.13,6.67-5.1,8.8-8.91,2.13-3.81,3.2-8.15,3.2-13.01s-1.06-9.19-3.2-13.01c-2.13-3.81-5.06-6.78-8.8-8.91-3.74-2.13-7.92-3.2-12.56-3.2s-8.82,1.07-12.56,3.2c-3.74,2.13-6.67,5.1-8.8,8.91-2.13,3.81-3.2,8.15-3.2,13.01s1.07,9.19,3.2,13.01c2.13,3.81,5.06,6.78,8.8,8.91,3.74,2.13,7.92,3.2,12.56,3.2s8.82-1.07,12.56-3.2Z"/><path class="e" d="M342.41,350.83l-.11-47.09-23.1,38.79h-8.18l-22.99-37.79v46.08h-17.04v-78.49h15.02l29.38,48.77,28.93-48.77h14.91l.22,78.49h-17.04Z"/><path class="e" d="M430.14,275.82c5.12,2.32,9.06,5.61,11.83,9.87,2.76,4.26,4.15,9.31,4.15,15.14s-1.38,10.78-4.15,15.08c-2.77,4.3-6.71,7.59-11.83,9.87-5.12,2.28-11.16,3.42-18.11,3.42h-15.81v21.64h-18.16v-78.49h33.97c6.95,0,12.99,1.16,18.11,3.48Zm-6.67,35.04c2.84-2.35,4.26-5.7,4.26-10.04s-1.42-7.79-4.26-10.15c-2.84-2.35-6.99-3.53-12.45-3.53h-14.8v27.25h14.8c5.46,0,9.6-1.18,12.45-3.53Z"/><path class="e" d="M506.78,334.01h-36.44l-6.95,16.82h-18.61l34.98-78.49h17.94l35.09,78.49h-19.06l-6.95-16.82Zm-5.72-13.79l-12.45-30.05-12.45,30.05h24.89Z"/><path class="e" d="M612.95,272.35v78.49h-14.91l-39.13-47.65v47.65h-17.94v-78.49h15.02l39.02,47.65v-47.65h17.94Zm-32.91-7.23c-1.53-.79-3.23-1.85-5.1-3.2-1.2-.9-2.19-1.57-2.97-2.02-.78-.45-1.55-.67-2.3-.67-1.57,0-2.84,.54-3.81,1.63-.97,1.08-1.5,2.63-1.57,4.65h-8.86c.15-5.01,1.4-8.99,3.76-11.94,2.35-2.95,5.47-4.43,9.36-4.43,1.94,0,3.68,.39,5.21,1.18,1.53,.78,3.27,1.89,5.21,3.31,1.2,.9,2.19,1.57,2.97,2.02,.79,.45,1.55,.67,2.3,.67,1.5,0,2.75-.54,3.76-1.63,1.01-1.08,1.55-2.56,1.63-4.43h8.86c-.15,4.86-1.4,8.75-3.76,11.66-2.36,2.92-5.48,4.37-9.36,4.37-2.02,0-3.79-.39-5.33-1.18Z"/><path class="e" d="M683.25,334.01h-36.44l-6.95,16.82h-18.61l34.98-78.49h17.94l35.09,78.49h-19.06l-6.95-16.82Zm-5.72-13.79l-12.45-30.05-12.45,30.05h24.89Z"/><path class="e" d="M788.87,350.83l-.11-47.09-23.1,38.79h-8.18l-22.99-37.79v46.08h-17.04v-78.49h15.02l29.38,48.77,28.93-48.77h14.91l.22,78.49h-17.04Z"/><path class="e" d="M840.5,346.91c-6.54-3.51-11.66-8.35-15.36-14.52s-5.55-13.1-5.55-20.8,1.85-14.63,5.55-20.8c3.7-6.17,8.82-11,15.36-14.52,6.54-3.51,13.88-5.27,22.03-5.27s15.47,1.76,21.98,5.27c6.5,3.51,11.62,8.35,15.36,14.52,3.74,6.17,5.61,13.1,5.61,20.8s-1.87,14.63-5.61,20.8c-3.74,6.17-8.86,11.01-15.36,14.52-6.5,3.51-13.83,5.27-21.98,5.27s-15.49-1.76-22.03-5.27Zm34.59-13.4c3.74-2.13,6.67-5.1,8.8-8.91,2.13-3.81,3.2-8.15,3.2-13.01s-1.06-9.19-3.2-13.01c-2.13-3.81-5.06-6.78-8.8-8.91-3.74-2.13-7.92-3.2-12.56-3.2s-8.82,1.07-12.56,3.2c-3.74,2.13-6.67,5.1-8.8,8.91-2.13,3.81-3.2,8.15-3.2,13.01s1.07,9.19,3.2,13.01c2.13,3.81,5.06,6.78,8.8,8.91,3.74,2.13,7.92,3.2,12.56,3.2s8.82-1.07,12.56-3.2Z"/><path class="e" d="M926.95,349.65c-5.79-1.68-10.45-3.87-13.96-6.56l6.17-13.68c3.36,2.47,7.36,4.45,12,5.94,4.63,1.5,9.27,2.24,13.9,2.24,5.16,0,8.97-.77,11.44-2.3,2.47-1.53,3.7-3.57,3.7-6.11,0-1.87-.73-3.42-2.19-4.65-1.46-1.23-3.33-2.22-5.61-2.97-2.28-.75-5.36-1.57-9.25-2.47-5.98-1.42-10.88-2.84-14.69-4.26-3.81-1.42-7.08-3.7-9.81-6.84-2.73-3.14-4.09-7.32-4.09-12.56,0-4.56,1.23-8.69,3.7-12.39s6.18-6.63,11.16-8.8c4.97-2.17,11.04-3.25,18.22-3.25,5.01,0,9.9,.6,14.69,1.79,4.78,1.2,8.97,2.92,12.56,5.16l-5.61,13.79c-7.25-4.11-14.5-6.17-21.75-6.17-5.08,0-8.84,.82-11.27,2.47-2.43,1.65-3.64,3.81-3.64,6.5s1.4,4.69,4.21,6c2.8,1.31,7.08,2.6,12.84,3.87,5.98,1.42,10.88,2.84,14.69,4.26,3.81,1.42,7.08,3.66,9.81,6.73,2.73,3.07,4.09,7.21,4.09,12.45,0,4.49-1.25,8.58-3.76,12.28-2.5,3.7-6.26,6.63-11.27,8.8-5.01,2.17-11.1,3.25-18.28,3.25-6.21,0-12.2-.84-18-2.52Z"/></g><g class="g"><path class="e" d="M63.81,445.58H27.37l-6.95,16.82H1.8l34.98-78.49h17.94l35.09,78.49h-19.06l-6.95-16.82Zm-5.72-13.79l-12.45-30.05-12.45,30.05h24.89Z"/><path class="e" d="M112.75,458.53c-6.47-3.48-11.55-8.3-15.25-14.46s-5.55-13.14-5.55-20.91,1.85-14.74,5.55-20.91c3.7-6.17,8.78-10.99,15.25-14.46,6.46-3.48,13.73-5.21,21.81-5.21,6.8,0,12.95,1.2,18.44,3.59,5.49,2.39,10.11,5.83,13.85,10.32l-11.66,10.76c-5.31-6.13-11.88-9.19-19.73-9.19-4.86,0-9.19,1.07-13.01,3.2-3.81,2.13-6.78,5.1-8.91,8.91-2.13,3.81-3.2,8.15-3.2,13.01s1.07,9.19,3.2,13.01c2.13,3.81,5.1,6.78,8.91,8.91,3.81,2.13,8.15,3.2,13.01,3.2,7.85,0,14.43-3.1,19.73-9.31l11.66,10.76c-3.74,4.56-8.37,8.04-13.9,10.43-5.53,2.39-11.7,3.59-18.5,3.59-8,0-15.23-1.74-21.7-5.21Z"/><path class="e" d="M193.36,458.48c-6.54-3.51-11.66-8.35-15.36-14.52s-5.55-13.1-5.55-20.8,1.85-14.63,5.55-20.8c3.7-6.17,8.82-11,15.36-14.52,6.54-3.51,13.88-5.27,22.03-5.27s15.47,1.76,21.98,5.27c6.5,3.51,11.62,8.35,15.36,14.52,3.74,6.17,5.61,13.1,5.61,20.8s-1.87,14.63-5.61,20.8c-3.74,6.17-8.86,11.01-15.36,14.52-6.5,3.51-13.83,5.27-21.98,5.27s-15.49-1.76-22.03-5.27Zm34.59-13.4c3.74-2.13,6.67-5.1,8.8-8.91,2.13-3.81,3.2-8.15,3.2-13.01s-1.06-9.19-3.2-13.01c-2.13-3.81-5.06-6.78-8.8-8.91-3.74-2.13-7.92-3.2-12.56-3.2s-8.82,1.07-12.56,3.2c-3.74,2.13-6.67,5.1-8.8,8.91-2.13,3.81-3.2,8.15-3.2,13.01s1.07,9.19,3.2,13.01c2.13,3.81,5.06,6.78,8.8,8.91,3.74,2.13,7.92,3.2,12.56,3.2s8.82-1.07,12.56-3.2Z"/><path class="e" d="M343.44,462.4l-.11-47.09-23.1,38.79h-8.18l-22.99-37.79v46.08h-17.04v-78.49h15.02l29.38,48.77,28.93-48.77h14.91l.22,78.49h-17.04Z"/><path class="e" d="M431.17,387.39c5.12,2.32,9.06,5.61,11.83,9.87,2.76,4.26,4.15,9.31,4.15,15.14s-1.38,10.78-4.15,15.08c-2.77,4.3-6.71,7.59-11.83,9.87-5.12,2.28-11.16,3.42-18.11,3.42h-15.81v21.64h-18.16v-78.49h33.97c6.95,0,12.99,1.16,18.11,3.48Zm-6.67,35.04c2.84-2.35,4.26-5.7,4.26-10.04s-1.42-7.79-4.26-10.15c-2.84-2.35-6.99-3.53-12.45-3.53h-14.8v27.25h14.8c5.46,0,9.6-1.18,12.45-3.53Z"/><path class="e" d="M507.81,445.58h-36.44l-6.95,16.82h-18.61l34.98-78.49h17.94l35.09,78.49h-19.06l-6.95-16.82Zm-5.72-13.79l-12.45-30.05-12.45,30.05h24.89Z"/><path class="e" d="M613.99,383.92v78.49h-14.91l-39.13-47.65v47.65h-17.94v-78.49h15.02l39.02,47.65v-47.65h17.94Zm-32.91-7.23c-1.53-.79-3.23-1.85-5.1-3.2-1.2-.9-2.19-1.57-2.97-2.02-.78-.45-1.55-.67-2.3-.67-1.57,0-2.84,.54-3.81,1.63-.97,1.08-1.5,2.63-1.57,4.65h-8.86c.15-5.01,1.4-8.99,3.76-11.94,2.35-2.95,5.47-4.43,9.36-4.43,1.94,0,3.68,.39,5.21,1.18,1.53,.78,3.27,1.89,5.21,3.31,1.2,.9,2.19,1.57,2.97,2.02,.79,.45,1.55,.67,2.3,.67,1.5,0,2.75-.54,3.76-1.63,1.01-1.08,1.55-2.56,1.63-4.43h8.86c-.15,4.86-1.4,8.75-3.76,11.66-2.36,2.92-5.48,4.37-9.36,4.37-2.02,0-3.79-.39-5.33-1.18Z"/><path class="e" d="M684.29,445.58h-36.44l-6.95,16.82h-18.61l34.98-78.49h17.94l35.09,78.49h-19.06l-6.95-16.82Zm-5.72-13.79l-12.45-30.05-12.45,30.05h24.89Z"/><path class="e" d="M789.9,462.4l-.11-47.09-23.1,38.79h-8.18l-22.99-37.79v46.08h-17.04v-78.49h15.02l29.38,48.77,28.93-48.77h14.91l.22,78.49h-17.04Z"/><path class="e" d="M841.53,458.48c-6.54-3.51-11.66-8.35-15.36-14.52s-5.55-13.1-5.55-20.8,1.85-14.63,5.55-20.8c3.7-6.17,8.82-11,15.36-14.52,6.54-3.51,13.88-5.27,22.03-5.27s15.47,1.76,21.98,5.27c6.5,3.51,11.62,8.35,15.36,14.52,3.74,6.17,5.61,13.1,5.61,20.8s-1.87,14.63-5.61,20.8c-3.74,6.17-8.86,11.01-15.36,14.52-6.5,3.51-13.83,5.27-21.98,5.27s-15.49-1.76-22.03-5.27Zm34.59-13.4c3.74-2.13,6.67-5.1,8.8-8.91,2.13-3.81,3.2-8.15,3.2-13.01s-1.06-9.19-3.2-13.01c-2.13-3.81-5.06-6.78-8.8-8.91-3.74-2.13-7.92-3.2-12.56-3.2s-8.82,1.07-12.56,3.2c-3.74,2.13-6.67,5.1-8.8,8.91-2.13,3.81-3.2,8.15-3.2,13.01s1.07,9.19,3.2,13.01c2.13,3.81,5.06,6.78,8.8,8.91,3.74,2.13,7.92,3.2,12.56,3.2s8.82-1.07,12.56-3.2Z"/><path class="e" d="M927.98,461.22c-5.79-1.68-10.45-3.87-13.96-6.56l6.17-13.68c3.36,2.47,7.36,4.45,12,5.94,4.63,1.5,9.27,2.24,13.9,2.24,5.16,0,8.97-.77,11.44-2.3,2.47-1.53,3.7-3.57,3.7-6.11,0-1.87-.73-3.42-2.19-4.65-1.46-1.23-3.33-2.22-5.61-2.97-2.28-.75-5.36-1.57-9.25-2.47-5.98-1.42-10.88-2.84-14.69-4.26-3.81-1.42-7.08-3.7-9.81-6.84-2.73-3.14-4.09-7.32-4.09-12.56,0-4.56,1.23-8.69,3.7-12.39s6.18-6.63,11.16-8.8c4.97-2.17,11.04-3.25,18.22-3.25,5.01,0,9.9,.6,14.69,1.79,4.78,1.2,8.97,2.92,12.56,5.16l-5.61,13.79c-7.25-4.11-14.5-6.17-21.75-6.17-5.08,0-8.84,.82-11.27,2.47-2.43,1.65-3.64,3.81-3.64,6.5s1.4,4.69,4.21,6c2.8,1.31,7.08,2.6,12.84,3.87,5.98,1.42,10.88,2.84,14.69,4.26,3.81,1.42,7.08,3.66,9.81,6.73,2.73,3.07,4.09,7.21,4.09,12.45,0,4.49-1.25,8.58-3.76,12.28-2.5,3.7-6.26,6.63-11.27,8.8-5.01,2.17-11.1,3.25-18.28,3.25-6.21,0-12.2-.84-18-2.52Z"/></g></g></g></svg>