<?xml version="1.0" encoding="UTF-8"?><svg xmlns="http://www.w3.org/2000/svg" viewBox="0 0 1035.89 1035.89"><defs><style>.d{fill:#fff;}.e{fill:#f63754;}.f{fill:#232323;}</style></defs><g id="a"/><g id="b"><g id="c"><circle class="f" cx="517.95" cy="517.95" r="517.95"/><g><path class="e" d="M630.21,410.28c-2.73-1.63-5.4-3.48-8.31-4.72-8.2-3.46-15.17-1.72-22.19,2.03l-.32,.18c-1.56,.84-3.13,1.78-4.71,2.77,.06,.11,.12,.23,.18,.34,.34,.67,.8,1.45,1.42,2.45l7.08,11.68,15.45,25.5,10.16,16.74,35.17-53.53c-11.36,4.4-22.67,3.28-33.92-3.44Zm-25.26,10.81c-.14,0-.38,.02-.41-.05-.07-.16-.04-.36-.06-.56,.16,.05,.36,.06,.46,.17,.07,.08,0,.29,0,.44Zm13.11,26.48c-.26-.19-.51-.36-.77-.54,.07-.1,.13-.21,.19-.3,.29,.17,.56,.33,.85,.5-.09,.11-.18,.23-.27,.34Z"/><path class="d" d="M573.95,377.56c-.33-1.69-.63-3.2-.96-4.89,10.72-2.14,21.29-4.27,31.88-6.34,2.15-.42,2.93,.99,3.3,2.85,1.91,9.73,3.86,19.45,5.85,29.5-1.6,.1-3.12,.19-5.02,.3-1.79-8.97-3.6-17.98-5.46-27.29-9.86,1.96-19.63,3.89-29.59,5.87Z"/><g><path class="d" d="M370.07,578.15v1.81h-71.76c-13.77,0-25.83-1.49-36.18-4.47-10.35-2.98-20.9-8.64-31.65-16.97-10.75-8.34-19.45-18.7-26.1-31.11-6.64-12.4-9.97-25.09-9.97-38.05,0-14.17,4.17-28.31,12.5-42.4,8.34-14.09,20.19-25.55,35.58-34.37,15.38-8.82,32.82-13.23,52.31-13.23,17.48,0,35.96,3.87,55.45,11.6l7.37,20.54h-1.77c-6.2-7.89-14.67-14.44-25.42-19.63-10.75-5.19-22.72-7.79-35.92-7.79-22.94,0-41.74,8.64-56.38,25.91-14.65,17.28-21.97,38.72-21.97,64.33,0,10.63,1.21,20.11,3.62,28.45,2.42,8.34,6.95,16.55,13.59,24.65s13.77,14.06,21.38,17.88c7.61,3.83,16.13,6.48,25.55,7.97,9.42,1.49,16.91,2.16,22.47,1.99l9.54-.24c10.79-.4,17.54-1.41,20.24-3.02,2.7-1.61,4.05-5.72,4.05-12.32v-26.94c0-5.23-1.09-8.76-3.26-10.57-2.17-1.81-5.28-2.6-9.3-2.36v-1.81h46.03v1.81c-5.16,0-8.6,1.01-10.33,3.01-1.73,2.01-2.6,5.87-2.6,11.57v27.97c0,5.63,.74,9.67,2.23,12.12,1.49,2.45,4.21,3.68,8.15,3.68h2.54Z"/><path class="d" d="M479.88,399.35c24.97,0,45.38,7.59,61.25,22.77,15.87,15.18,23.8,34.13,23.8,56.84,0,29.24-9.18,53.84-27.54,73.81-18.36,19.98-42.73,29.96-73.09,29.96-24.65,0-44.82-8.05-60.53-24.16-15.7-16.11-23.56-35.44-23.56-57.99,0-15.22,3.78-30.85,11.36-46.87,7.57-16.03,18.97-29.09,34.19-39.2,15.22-10.11,33.26-15.16,54.12-15.16Zm-.73,173.97c12.24,0,24.32-3.28,36.24-9.85,11.92-6.56,21.3-15.6,28.15-27.12,6.84-11.52,10.27-23.36,10.27-35.52,0-17.23-4.61-32.9-13.83-46.99-9.22-14.09-21.18-25.13-35.88-33.1-14.7-7.97-28.29-11.96-40.77-11.96-17.64,0-33.65,6.64-48.02,19.93-14.38,13.29-21.56,29.8-21.56,49.53,0,25.21,8.78,47.36,26.34,66.44,17.56,19.09,37.25,28.63,59.08,28.63Z"/><path class="d" d="M776.21,498.05h-52.23l-26.94,67.17c-1.85,4.83-2.78,7.81-2.78,8.94,0,2.66,1.97,3.99,5.92,3.99v1.81h-26.46v-1.81c3.54,0,6.52-.86,8.93-2.6,2.41-1.73,5.07-6.23,7.97-13.48l64.5-162.72h3.2l63.45,157.15c0,.81,1.63,4.62,4.88,11.43,3.25,6.81,8.21,10.22,14.88,10.22v1.81h-41.56v-1.81c3.78,0,5.68-1.49,5.68-4.47,0-2.01-.93-5.23-2.78-9.66-.32-.32-.6-.85-.85-1.57-.16-.8-.28-1.21-.36-1.21l-25.46-63.18Zm-50.52-4.95h48.13l-24.04-60.65-24.09,60.65Z"/></g><g><path class="d" d="M336.35,613.38v2.62h-5.21v16.95h-3.21v-16.95h-5.24v-2.62h13.66Z"/><path class="d" d="M354.06,613.38v19.57h-3.21v-19.57h3.21Z"/><path class="d" d="M372.76,615.97v5.75h6.76v2.62h-6.76v6h7.6v2.62h-10.81v-19.6h10.81v2.62h-7.6Z"/><path class="d" d="M411.66,632.95h-3.21l-9.66-14.62v14.62h-3.21v-19.6h3.21l9.66,14.59v-14.59h3.21v19.6Z"/><path class="d" d="M439.02,614.58c1.57,.8,2.78,1.94,3.63,3.44,.85,1.49,1.28,3.23,1.28,5.22s-.43,3.72-1.28,5.18c-.85,1.46-2.07,2.59-3.63,3.37-1.57,.78-3.39,1.17-5.48,1.17h-6.39v-19.57h6.39c2.08,0,3.91,.4,5.48,1.2Zm-.21,13.9c1.22-1.24,1.83-2.99,1.83-5.24s-.61-4.05-1.83-5.32c-1.22-1.28-2.98-1.92-5.27-1.92h-3.18v14.33h3.18c2.29,0,4.05-.62,5.27-1.86Z"/><path class="d" d="M470.18,628.96h-8.2l-1.41,4h-3.35l7.01-19.6h3.72l7.01,19.6h-3.38l-1.41-4Zm-.9-2.62l-3.18-9.1-3.21,9.1h6.39Z"/><path class="d" d="M522.03,619.01c-.51-.98-1.21-1.71-2.11-2.21-.9-.5-1.94-.75-3.13-.75-1.3,0-2.45,.29-3.46,.87-1.01,.58-1.81,1.41-2.38,2.48s-.86,2.31-.86,3.72,.29,2.65,.86,3.73c.57,1.08,1.37,1.91,2.38,2.49,1.01,.58,2.17,.87,3.46,.87,1.75,0,3.16-.49,4.25-1.46,1.09-.98,1.76-2.3,2-3.97h-7.35v-2.56h10.79v2.51c-.21,1.52-.75,2.92-1.62,4.2-.87,1.28-2.01,2.29-3.41,3.06-1.4,.76-2.95,1.14-4.66,1.14-1.84,0-3.52-.43-5.04-1.28-1.52-.85-2.73-2.04-3.62-3.56-.89-1.52-1.34-3.24-1.34-5.15s.45-3.63,1.34-5.15c.89-1.52,2.1-2.71,3.63-3.56s3.21-1.28,5.03-1.28c2.08,0,3.94,.51,5.56,1.53,1.62,1.02,2.8,2.47,3.53,4.35h-3.86Z"/><path class="d" d="M544.79,631.87c-1.53-.85-2.74-2.05-3.63-3.58-.89-1.53-1.34-3.25-1.34-5.17s.45-3.63,1.34-5.15c.89-1.52,2.1-2.71,3.63-3.56s3.21-1.28,5.03-1.28,3.52,.43,5.06,1.28c1.53,.85,2.74,2.04,3.62,3.56,.88,1.52,1.32,3.24,1.32,5.15s-.44,3.64-1.32,5.17c-.88,1.53-2.09,2.72-3.62,3.58-1.53,.85-3.22,1.28-5.06,1.28s-3.5-.43-5.03-1.28Zm8.49-2.39c1.01-.59,1.81-1.44,2.38-2.53s.86-2.37,.86-3.82-.29-2.71-.86-3.8-1.37-1.92-2.38-2.51c-1.01-.58-2.17-.87-3.46-.87s-2.45,.29-3.46,.87c-1.01,.58-1.81,1.42-2.38,2.51s-.86,2.36-.86,3.8,.29,2.72,.86,3.82,1.37,1.94,2.38,2.53c1.01,.59,2.17,.89,3.46,.89s2.45-.3,3.46-.89Z"/><path class="d" d="M577.42,613.38v12.48c0,1.48,.39,2.6,1.17,3.35,.78,.75,1.86,1.13,3.25,1.13s2.5-.38,3.28-1.13c.78-.75,1.17-1.87,1.17-3.35v-12.48h3.21v12.42c0,1.6-.35,2.95-1.04,4.06-.69,1.11-1.62,1.93-2.79,2.48-1.16,.54-2.45,.82-3.86,.82s-2.69-.27-3.84-.82c-1.15-.54-2.07-1.37-2.75-2.48-.68-1.11-1.01-2.46-1.01-4.06v-12.42h3.21Z"/><path class="d" d="M615.1,632.95l-4.51-7.83h-2.45v7.83h-3.21v-19.57h6.76c1.5,0,2.77,.26,3.82,.79s1.82,1.23,2.34,2.11c.52,.88,.77,1.87,.77,2.96,0,1.28-.37,2.44-1.11,3.48-.74,1.04-1.88,1.75-3.42,2.13l4.84,8.11h-3.83Zm-6.96-10.39h3.55c1.2,0,2.11-.3,2.72-.9,.61-.6,.92-1.41,.92-2.42s-.3-1.81-.9-2.38c-.6-.57-1.51-.86-2.73-.86h-3.55v6.56Z"/><path class="d" d="M654.61,613.38v19.57h-3.21v-13.41l-5.97,13.41h-2.23l-6-13.41v13.41h-3.21v-19.57h3.46l6.87,15.35,6.84-15.35h3.44Z"/><path class="d" d="M673.31,615.97v5.75h6.76v2.62h-6.76v6h7.6v2.62h-10.81v-19.6h10.81v2.62h-7.6Z"/><path class="d" d="M708.77,613.38v2.62h-5.21v16.95h-3.21v-16.95h-5.24v-2.62h13.66Z"/></g><rect class="d" x="194.36" y="620.14" width="112.69" height="3.02"/><rect class="d" x="728.84" y="620.14" width="112.69" height="3.02"/><path d="M645.54,398.48l-14.13,.11s6.41-.36,14.13-.11Z"/><path class="d" d="M692.95,395.55c-1.45,2.16-2.9,4.32-4.36,6.46-.69,1.04-1.38,2.06-2.06,3.09-13.25,19.54-26.64,38.45-40.87,56.71l-12.44,18.87v81.46c0,6.58,.86,10.9,2.57,12.95,1.7,2.04,5.4,3.08,11.09,3.08v1.81h-47.59v-1.81c9.09,.56,13.65-3.02,13.65-10.75l-.25-5.08v-75.2l-43.61-72.19c-4.59-7.66-9.7-11.36-15.35-11.11v-1.82h42.05v1.82c-2.93,0-4.76,.83-5.51,2.49-.25,.56-.37,1.22-.37,1.97,0,1.06,.49,2.53,1.46,4.4,.42,.83,.95,1.73,1.56,2.71l19.86,32.76v.02l16.03,26.44,1.88-2.85,37.33-56.82c.72-.65,1.51-1.84,2.41-3.56,.18-.32,.32-.64,.45-.92,.29-.62,.51-1.13,.65-1.56,0,0,0,0,0-.02,.14-.44,.22-.81,.22-1.06,0-.11,0-.21,0-.3,.03-2.4-1.78-4.18-4.66-5.5-2.41-1.12-5.57-1.89-9.03-2.44h-.03c-4.03-.64-8.45-.95-12.51-1.09-7.72-.26-14.13,.11-14.13,.11,0-.31,0-.63-.02-.92,20.22-.71,40.46-1.4,61.56-2.11Z"/><path d="M671.77,407.81c0,.26-.08,.62-.22,1.06,0-.04,0-.07,.02-.1,.11-.43,.18-.87,.19-1.27,0,.1,0,.2,0,.3Z"/><path class="e" d="M623.34,451.8l-4.53-1.3-15.45-25.5-1.24-3.91,.94-3.74,5.05-3.64s15.17,28.91,15.23,29.87c.07,.94,0,8.22,0,8.22Z"/><path class="d" d="M635.19,415.65c-23.13-8.05-35.11-4.38-35.83-4.15-.03,0-.04,0-.04,0,0,0,0,0,.02,0,.51-.31,11.69-6.94,21.26-2.14,5.67,2.86,10.57,4.86,14.59,6.29Z"/><path class="d" d="M600.04,411.5s-.04,0-.04,0c0,0,0,0,.02,0h.02Z"/></g></g></g></svg>