<svg xmlns="http://www.w3.org/2000/svg" viewBox="0 0 415.86 415.86"><defs><style>.cls-1{fill:#f63754;}.cls-2{fill:#fff;}.cls-3,.cls-4{fill:none;stroke:#fff;stroke-miterlimit:10;}.cls-3{stroke-width:4px;}.cls-4{stroke-width:7px;}</style></defs><g id="Capa_2" data-name="Capa 2"><g id="Capa_1-2" data-name="Capa 1"><path class="cls-1" d="M210.66,190.42a49,49,0,0,0-5.8-3.29c-5.73-2.42-10.59-1.2-15.49,1.41l-.23.12c-1.09.59-2.18,1.25-3.29,1.94.05.08.09.16.13.24.24.47.55,1,1,1.71l4.94,8.15,10.78,17.8,7.09,11.69,24.55-37.37C226.4,195.9,218.51,195.12,210.66,190.42ZM193,198c-.1,0-.27,0-.29,0a1.26,1.26,0,0,1,0-.4c.11,0,.25.05.32.12S193,197.86,193,198Zm9.15,18.48-.54-.38.14-.21.59.35Z"/><path class="cls-2" d="M171.38,167.59l-.67-3.42c7.48-1.49,14.86-3,22.25-4.42,1.51-.3,2,.69,2.31,2,1.33,6.79,2.69,13.57,4.08,20.59l-3.5.21-3.81-19Z"/><path class="cls-2" d="M275,267.36v1.5H215.66q-17.1,0-29.93-3.7t-26.18-14A79.71,79.71,0,0,1,138,225.39a66,66,0,0,1-8.24-31.47q0-17.59,10.34-35.08t29.43-28.42q19.08-10.95,43.27-10.95,21.68,0,45.86,9.6l6.1,17h-1.47q-7.69-9.78-21-16.23a67.33,67.33,0,0,0-29.71-6.45q-28.47,0-46.64,21.44T147.71,198a85,85,0,0,0,3,23.53A57.61,57.61,0,0,0,162,241.93q8.24,10,17.68,14.79a71.78,71.78,0,0,0,21.14,6.6A105.36,105.36,0,0,0,219.35,265l7.9-.2q13.38-.5,16.73-2.49c2.23-1.34,3.35-4.73,3.35-10.2V229.79q0-6.49-2.7-8.74t-7.69-2v-1.5H275v1.5q-6.39,0-8.54,2.49c-1.44,1.66-2.15,4.86-2.15,9.58V254.3c0,4.65.61,8,1.85,10s3.48,3,6.74,3Z"/><path d="M221.35,182.19l-9.86.07S216,182,221.35,182.19Z"/><path class="cls-2" d="M254.45,180.14q-1.51,2.27-3,4.51c-.48.73-1,1.44-1.44,2.15-9.25,13.65-18.6,26.84-28.53,39.59l-8.68,13.17v56.86c0,4.59.6,7.61,1.79,9s3.77,2.15,7.74,2.15v1.26H189.07V307.6q9.52.58,9.53-7.5l-.17-3.55V244.06L168,193.67q-4.81-8-10.72-7.75v-1.27h29.35v1.27q-3.06,0-3.84,1.74a3.42,3.42,0,0,0-.26,1.37,7.36,7.36,0,0,0,1,3.07c.3.58.67,1.21,1.09,1.9l13.87,22.86v0l11.19,18.45,1.31-2,26.05-39.67a9.08,9.08,0,0,0,1.69-2.48c.12-.23.22-.45.31-.65a7.06,7.06,0,0,0,.45-1.09h0a2.59,2.59,0,0,0,.15-.74v-.21c0-1.68-1.25-2.92-3.26-3.84a24.62,24.62,0,0,0-6.3-1.7h0a71.1,71.1,0,0,0-8.73-.76c-5.38-.18-9.86.07-9.86.07,0-.22,0-.44,0-.64C225.59,181.12,239.72,180.64,254.45,180.14Z"/><path d="M239.66,188.7a2.59,2.59,0,0,1-.15.74s0-.05,0-.07a4,4,0,0,0,.14-.88Z"/><path class="cls-1" d="M205.86,219.41l-3.17-.91-10.78-17.8L191,198l.66-2.61,3.53-2.54s10.59,20.18,10.63,20.85S205.86,219.41,205.86,219.41Z"/><path class="cls-2" d="M214.13,194.17c-16.15-5.62-24.5-3.06-25-2.9h0c.36-.22,8.16-4.84,14.85-1.49A89.52,89.52,0,0,0,214.13,194.17Z"/><path class="cls-2" d="M189.59,191.27h0Z"/><circle class="cls-3" cx="207.93" cy="207.93" r="156.97"/><path class="cls-2" d="M137.82,375.66a4.65,4.65,0,0,1-2,5,4.9,4.9,0,0,1-2.62.73,7.22,7.22,0,0,1-3.14-.74l-6.62-3L131,361.14l6.3,2.88a7.43,7.43,0,0,1,2.64,1.9,4.65,4.65,0,0,1,1.13,2.37,4.24,4.24,0,0,1-.37,2.44,4,4,0,0,1-1.84,2,4.91,4.91,0,0,1-2.69.46A4.1,4.1,0,0,1,137.82,375.66Zm-4.5,3a2.54,2.54,0,0,0,1.63-1.5,2.64,2.64,0,0,0,.05-2.31,3.56,3.56,0,0,0-1.88-1.72l-3.57-1.63-2.36,5.16,3.66,1.67A3.6,3.6,0,0,0,133.32,378.7Zm-2.76-9.38,3.36,1.54a3.52,3.52,0,0,0,2.35.34,2.3,2.3,0,0,0,1.55-1.4,2.37,2.37,0,0,0,.05-2.09,3.43,3.43,0,0,0-1.79-1.59l-3.35-1.53Z"/><path class="cls-2" d="M153.85,388.55a8.8,8.8,0,0,1-2.39-4.09,9.5,9.5,0,0,1,.06-5,9.31,9.31,0,0,1,2.46-4.29,8.78,8.78,0,0,1,4.12-2.31,9.83,9.83,0,0,1,9,2.46,8.85,8.85,0,0,1,2.38,4.07,9.95,9.95,0,0,1-2.52,9.25,8.73,8.73,0,0,1-4.11,2.33,9.51,9.51,0,0,1-4.85-.09A9.34,9.34,0,0,1,153.85,388.55Zm8.19-.08a5.61,5.61,0,0,0,2.75-1.69,7.49,7.49,0,0,0,1.7-3.21,7.38,7.38,0,0,0,.16-3.62,5.72,5.72,0,0,0-1.52-2.82,6.39,6.39,0,0,0-2.89-1.63,6.26,6.26,0,0,0-3.32-.06,5.67,5.67,0,0,0-2.75,1.66,7.49,7.49,0,0,0-1.69,3.2,7.42,7.42,0,0,0-.16,3.63,5.71,5.71,0,0,0,1.51,2.86,6.3,6.3,0,0,0,2.89,1.63A6.15,6.15,0,0,0,162,388.47Z"/><path class="cls-2" d="M196.47,384.12a4.7,4.7,0,0,0-1.76-2.22,5.89,5.89,0,0,0-2.83-1,6.38,6.38,0,0,0-3.28.51,5.65,5.65,0,0,0-2.41,2.09,7.89,7.89,0,0,0-.63,6.89,5.57,5.57,0,0,0,2,2.51,6.35,6.35,0,0,0,3.13,1.1,5.67,5.67,0,0,0,4-1,5.93,5.93,0,0,0,2.19-3.51l-6.8-.62.22-2.37,10,.92-.22,2.32a9,9,0,0,1-5.26,6.28,8.92,8.92,0,0,1-4.41.65,9.3,9.3,0,0,1-4.55-1.61,8.89,8.89,0,0,1-3-3.6,9.36,9.36,0,0,1-.8-4.88,9.27,9.27,0,0,1,1.68-4.66,8.79,8.79,0,0,1,3.66-3,9.36,9.36,0,0,1,4.76-.76,9.51,9.51,0,0,1,5,1.89,8.13,8.13,0,0,1,2.9,4.33Z"/><path class="cls-2" d="M218.2,396.12a8.8,8.8,0,0,1-3.63-3.05,9.4,9.4,0,0,1-1.61-4.68,9.21,9.21,0,0,1,.86-4.87,8.86,8.86,0,0,1,3.1-3.57,9.85,9.85,0,0,1,9.34-.74,8.73,8.73,0,0,1,3.61,3,10,10,0,0,1,.75,9.56,8.62,8.62,0,0,1-3.09,3.57,9.77,9.77,0,0,1-9.33.74Zm7.69-2.84a5.72,5.72,0,0,0,2-2.52,8.24,8.24,0,0,0-.55-7.05,5.68,5.68,0,0,0-2.39-2.15,6.33,6.33,0,0,0-3.27-.55,6.2,6.2,0,0,0-3.14,1.06,5.58,5.58,0,0,0-2,2.49,7.44,7.44,0,0,0-.52,3.58,7.55,7.55,0,0,0,1.07,3.48,5.73,5.73,0,0,0,2.39,2.17,6.68,6.68,0,0,0,6.42-.51Z"/><path class="cls-2" d="M254.28,372.93l.57,2.37-4.7,1.13,3.68,15.31-2.9.7-3.68-15.31-4.73,1.13L242,375.9Z"/><path class="cls-2" d="M273.74,361.85l-4.27,4.83-.83-2,4.14-5.14Zm8,16.58-7,2.88.2,3.93L272,386.42l-.86-19.31,3.2-1.31,12.92,14.38-2.91,1.19Zm-1.7-1.94-5.93-6.7.43,8.95Z"/><path class="cls-2" d="M74.52,75.64l2.26,2.1L73.93,80.8l9.31,8.65-2.62,2.82-9.31-8.65-2.84,3.06-2.26-2.09Z"/><path class="cls-2" d="M86.36,64.8,96.71,76.73,93.8,79.25,83.46,67.33Z"/><path class="cls-2" d="M101.48,57l1.83,2.62,4.22-3,1.7,2.43L105,62l2,2.84,4.78-3.34,1.76,2.52-7.92,5.55-9-12.94,7.92-5.54,1.77,2.52Z"/><path class="cls-2" d="M135.41,51.77,132,53.54l-10.18-5.71,4.46,8.66-3.41,1.76-7.25-14L119,42.46l10.2,5.74-4.49-8.69,3.42-1.76Z"/><path class="cls-2" d="M150.69,30.05a7,7,0,0,1,3.63,1.69,8.27,8.27,0,0,1,2.31,3.57,8.16,8.16,0,0,1,.36,4.23,7.06,7.06,0,0,1-1.84,3.57,9.17,9.17,0,0,1-3.8,2.35l-5.59,1.92-5.11-14.94,5.59-1.91A9.19,9.19,0,0,1,150.69,30.05Zm2.18,10.11a4.46,4.46,0,0,0,0-3.58,4.21,4.21,0,0,0-5.85-2.87l-1.72.59,3,8.68,1.72-.59A4.62,4.62,0,0,0,152.87,40.16Z"/><path class="cls-2" d="M178.6,35.58l-5.79,1.08-.42,2.91-3.95.74,2.72-16.57,4.38-.81L184,37.4l-4,.75Zm-1.51-2.74-3-5.32-.84,6Z"/><path class="cls-2" d="M218.55,25.42a3,3,0,0,0-1.18-1.25,4,4,0,0,0-1.86-.49,3.86,3.86,0,0,0-3,1.11A4.64,4.64,0,0,0,211.22,28a4.65,4.65,0,0,0,1.05,3.45,4.3,4.3,0,0,0,3.19,1.36,3.78,3.78,0,0,0,3.93-2.64L214.52,30l.11-2.83,8.36.33-.14,3.57a7.62,7.62,0,0,1-4.23,4.51,8,8,0,0,1-3.58.63A8.38,8.38,0,0,1,210.91,35a7.28,7.28,0,0,1-2.74-2.95,8.3,8.3,0,0,1-.86-4.2,8.42,8.42,0,0,1,1.19-4.13A7.28,7.28,0,0,1,211.45,21a8.41,8.41,0,0,1,4.2-.86,8.15,8.15,0,0,1,4.72,1.56,6.47,6.47,0,0,1,2.42,3.9Z"/><path class="cls-2" d="M236.63,37.39A7.76,7.76,0,0,1,234.28,34a8.09,8.09,0,0,1-.29-4.3,8,8,0,0,1,1.86-3.89,7.78,7.78,0,0,1,3.43-2.27,8.55,8.55,0,0,1,8,1.54,7.64,7.64,0,0,1,2.33,3.37,8.58,8.58,0,0,1-1.58,8.18,7.73,7.73,0,0,1-3.41,2.29,8.12,8.12,0,0,1-4.19.25A8.27,8.27,0,0,1,236.63,37.39Zm7.68-2.33A4.78,4.78,0,0,0,246.05,32a4.81,4.81,0,0,0-.48-3.49,3.87,3.87,0,0,0-2.74-1.79,3.94,3.94,0,0,0-3.23.64,4.77,4.77,0,0,0-1.74,3.07,4.79,4.79,0,0,0,.49,3.5,4.29,4.29,0,0,0,6,1.13Z"/><path class="cls-2" d="M267.39,29.75l-3.12,8.91A3.09,3.09,0,0,0,264.2,41a2.65,2.65,0,0,0,1.68,1.4,2.71,2.71,0,0,0,2.21,0,3.05,3.05,0,0,0,1.4-1.82l3.12-8.91,3.63,1.27-3.12,8.89a6.69,6.69,0,0,1-2,3.08,5.8,5.8,0,0,1-3,1.28,7.68,7.68,0,0,1-3.44-.42,7.51,7.51,0,0,1-2.91-1.79A5.5,5.5,0,0,1,260.27,41a7,7,0,0,1,.37-3.67l3.12-8.89Z"/><path class="cls-2" d="M288.39,55.87l-.19-6.8-.82-.42L284.66,54l-3.42-1.76,7.22-14,5.74,3a7.12,7.12,0,0,1,2.53,2,4.51,4.51,0,0,1,.93,2.49,5,5,0,0,1-.58,2.55,4.6,4.6,0,0,1-5.21,2.45l.38,7.23Zm.24-9.64,2.12,1.09a2.2,2.2,0,0,0,1.64.27,2,2,0,0,0,1.14-1.06,1.89,1.89,0,0,0,.18-1.5,2.24,2.24,0,0,0-1.17-1.19l-2.12-1.09Z"/><path class="cls-2" d="M325.23,61,316,73.81l-3.11-2.26,5.55-7.66L310,69.48l-2.52-1.82,2.69-9.77-5.56,7.69-3.12-2.26,9.26-12.78,3.68,2.66-2.82,11.45,10-6.28Z"/><path class="cls-2" d="M336,74.83l-2.22,2.29,3.69,3.58-2.07,2.13-3.69-3.58-2.41,2.48,4.18,4.06L331.3,88l-6.94-6.74,11-11.32,6.94,6.73-2.15,2.21Z"/><path class="cls-2" d="M358.15,95.1,355.75,97l-2.62-3.26-9.9,8-2.41-3,9.9-8-2.62-3.26,2.4-1.93Z"/><circle class="cls-4" cx="207.93" cy="207.93" r="204.43"/></g></g></svg>