<svg xmlns="http://www.w3.org/2000/svg" xmlns:xlink="http://www.w3.org/1999/xlink" viewBox="0 0 206.21 85.04"><defs><style>.cls-1{fill:#f63754;}.cls-2{fill:#fff;}.cls-3{fill:url(#linear-gradient);}</style><linearGradient id="linear-gradient" x1="-46.89" y1="39.16" x2="253.36" y2="39.16" gradientUnits="userSpaceOnUse"><stop offset="0.03" stop-color="#b37929"/><stop offset="0.08" stop-color="#b8802d"/><stop offset="0.15" stop-color="#c59339"/><stop offset="0.25" stop-color="#dbb24c"/><stop offset="0.33" stop-color="#f5d763"/><stop offset="0.52" stop-color="#f4de8b"/><stop offset="0.66" stop-color="#f5d763"/><stop offset="1" stop-color="#b37929"/></linearGradient></defs><g id="Capa_2" data-name="Capa 2"><g id="Capa_1-2" data-name="Capa 1"><path class="cls-1" d="M138.88,14a23.17,23.17,0,0,0-2.65-1.51c-2.61-1.1-4.83-.55-7.07.65l-.1.05c-.5.27-1,.57-1.5.89l0,.11c.11.21.26.46.45.78l2.26,3.72,4.92,8.12,3.24,5.34,11.2-17.06A11.77,11.77,0,0,1,138.88,14Zm-8,3.44c-.05,0-.12,0-.13,0a.52.52,0,0,1,0-.18.38.38,0,0,1,.15,0S130.83,17.42,130.83,17.47ZM135,25.91l-.25-.17s0-.07.06-.1l.27.16A1,1,0,0,0,135,25.91Z"/><path class="cls-2" d="M121,3.6,120.64,2c3.42-.68,6.79-1.36,10.16-2,.69-.13.94.32,1,.91.61,3.1,1.23,6.2,1.87,9.4l-1.6.1c-.57-2.86-1.15-5.73-1.74-8.7Z"/><path class="cls-2" d="M45.24,78.74v.84H43.58V85h-1v-5.4H40.89v-.84Z"/><path class="cls-2" d="M50.89,78.74V85h-1V78.74Z"/><path class="cls-2" d="M56.84,79.57V81.4H59v.83H56.84v1.91h2.43V85H55.82V78.73h3.45v.84Z"/><path class="cls-2" d="M69.24,85h-1l-3.07-4.66V85h-1V78.73h1l3.07,4.65V78.73h1Z"/><path class="cls-2" d="M78,79.12a2.77,2.77,0,0,1,1.15,1.1,3.29,3.29,0,0,1,.41,1.66,3.2,3.2,0,0,1-.41,1.65A2.73,2.73,0,0,1,78,84.61a4,4,0,0,1-1.75.37h-2V78.74h2A3.89,3.89,0,0,1,78,79.12Zm-.07,4.43a2.26,2.26,0,0,0,.58-1.67,2.33,2.33,0,0,0-.58-1.69,2.21,2.21,0,0,0-1.68-.61h-1v4.56h1A2.24,2.24,0,0,0,77.89,83.55Z"/><path class="cls-2" d="M87.88,83.7H85.27L84.82,85H83.76L86,78.73h1.19L89.41,85H88.33Zm-.28-.83-1-2.9-1,2.9Z"/><path class="cls-2" d="M104.4,80.54a1.65,1.65,0,0,0-.67-.71,2,2,0,0,0-1-.24,2.23,2.23,0,0,0-1.11.28,2.06,2.06,0,0,0-.76.79,2.52,2.52,0,0,0-.27,1.19,2.54,2.54,0,0,0,.27,1.19,2.06,2.06,0,0,0,.76.79,2.13,2.13,0,0,0,1.11.28,2,2,0,0,0,1.35-.47,2,2,0,0,0,.64-1.26h-2.34v-.82h3.43v.8a3.09,3.09,0,0,1-1.6,2.31,3.09,3.09,0,0,1-1.48.36,3.14,3.14,0,0,1-1.61-.41A3,3,0,0,1,100,83.49a3.14,3.14,0,0,1-.43-1.64A3.17,3.17,0,0,1,100,80.2a3,3,0,0,1,1.15-1.13,3.29,3.29,0,0,1,1.61-.41,3.23,3.23,0,0,1,1.77.49,2.81,2.81,0,0,1,1.12,1.39Z"/><path class="cls-2" d="M111.66,84.63a3,3,0,0,1-1.16-1.14,3.2,3.2,0,0,1-.42-1.64,3.27,3.27,0,0,1,.42-1.65,3.07,3.07,0,0,1,1.16-1.13,3.35,3.35,0,0,1,3.21,0A3.07,3.07,0,0,1,116,80.2a3.27,3.27,0,0,1,.42,1.65,3.2,3.2,0,0,1-.42,1.64,3,3,0,0,1-1.16,1.14,3.35,3.35,0,0,1-3.21,0Zm2.71-.76a2,2,0,0,0,.75-.81,2.49,2.49,0,0,0,.28-1.21,2.46,2.46,0,0,0-.28-1.21,1.88,1.88,0,0,0-.75-.8,2.18,2.18,0,0,0-1.11-.28,2.12,2.12,0,0,0-1.1.28,1.84,1.84,0,0,0-.76.8,2.57,2.57,0,0,0-.27,1.21,2.6,2.6,0,0,0,.27,1.21,1.92,1.92,0,0,0,.76.81,2.12,2.12,0,0,0,1.1.28A2.18,2.18,0,0,0,114.37,83.87Z"/><path class="cls-2" d="M122.06,78.74v4a1.38,1.38,0,0,0,.37,1.06,1.42,1.42,0,0,0,1,.36,1.45,1.45,0,0,0,1.05-.36,1.38,1.38,0,0,0,.37-1.06v-4h1v4a2.38,2.38,0,0,1-.33,1.29,2,2,0,0,1-.89.79,3,3,0,0,1-2.45,0,2,2,0,0,1-.87-.79A2.38,2.38,0,0,1,121,82.7v-4Z"/><path class="cls-2" d="M134.06,85l-1.43-2.5h-.78V85h-1V78.74H133a2.77,2.77,0,0,1,1.21.25,1.78,1.78,0,0,1,.75.68,1.95,1.95,0,0,1-.11,2,1.81,1.81,0,0,1-1.09.67L135.28,85Zm-2.21-3.31H133a1.18,1.18,0,0,0,.86-.29,1,1,0,0,0,.29-.77,1,1,0,0,0-.28-.76,1.26,1.26,0,0,0-.87-.27h-1.13Z"/><path class="cls-2" d="M146.65,78.74V85h-1V80.71L143.73,85H143l-1.91-4.27V85h-1V78.74h1.11l2.19,4.89,2.18-4.89Z"/><path class="cls-2" d="M152.61,79.57V81.4h2.15v.83h-2.15v1.91H155V85h-3.44V78.73H155v.84Z"/><path class="cls-2" d="M163.91,78.74v.84h-1.66V85h-1v-5.4h-1.66v-.84Z"/><rect class="cls-2" y="80.9" width="35.91" height="0.96"/><rect class="cls-2" x="170.3" y="80.89" width="35.91" height="0.96"/><path d="M143.76,10.27l-4.5,0S141.3,10.19,143.76,10.27Z"/><path class="cls-2" d="M56,67.52v.57H33.12a41.84,41.84,0,0,1-11.53-1.42,30.25,30.25,0,0,1-10.08-5.41,30.79,30.79,0,0,1-8.32-9.91A25.49,25.49,0,0,1,0,39.22,26.3,26.3,0,0,1,4,25.71a30.47,30.47,0,0,1,11.34-11A32.89,32.89,0,0,1,32,10.54a48,48,0,0,1,17.66,3.7L52,20.78h-.56a22.61,22.61,0,0,0-8.1-6.25,25.91,25.91,0,0,0-11.45-2.48A22.48,22.48,0,0,0,14,20.3q-7,8.26-7,20.5A32.64,32.64,0,0,0,8.1,49.87a22.21,22.21,0,0,0,4.33,7.85,21.45,21.45,0,0,0,6.81,5.7A27.77,27.77,0,0,0,27.39,66a41.25,41.25,0,0,0,7.16.63l3-.08c3.44-.12,5.58-.44,6.44-1s1.29-1.82,1.29-3.92V53c0-1.67-.34-2.79-1-3.37a4.17,4.17,0,0,0-3-.75v-.57H56v.57c-1.65,0-2.74.32-3.29,1s-.83,1.87-.83,3.69v8.91a7.71,7.71,0,0,0,.71,3.86,2.77,2.77,0,0,0,2.6,1.18Z"/><path class="cls-2" d="M91,10.54q11.92,0,19.51,7.26a24,24,0,0,1,7.59,18.11q0,14-8.78,23.52T86,69q-11.78,0-19.28-7.7A25.5,25.5,0,0,1,59.22,42.8a34.83,34.83,0,0,1,3.62-14.93A30.14,30.14,0,0,1,91,10.54ZM90.75,66a23.67,23.67,0,0,0,11.54-3.14,23.28,23.28,0,0,0,9-8.64,21.91,21.91,0,0,0,3.27-11.32,26.74,26.74,0,0,0-4.4-15A31.22,31.22,0,0,0,98.69,17.36q-7-3.81-13-3.81A22,22,0,0,0,70.4,19.9a20.6,20.6,0,0,0-6.87,15.78,30.33,30.33,0,0,0,8.39,21.17Q80.32,66,90.75,66Z"/><path class="cls-2" d="M185.4,42H168.76L160.17,63.4a12.33,12.33,0,0,0-.88,2.85c0,.84.62,1.27,1.88,1.27v.57h-8.43v-.57a4.78,4.78,0,0,0,2.85-.83c.77-.55,1.61-2,2.54-4.3l20.55-51.85h1l20.21,50.08a21.42,21.42,0,0,0,1.56,3.64,5,5,0,0,0,4.74,3.26v.57H193v-.57c1.2,0,1.81-.48,1.81-1.43a9.34,9.34,0,0,0-.89-3.08,1.35,1.35,0,0,1-.27-.5c-.05-.25-.09-.38-.11-.38Zm-16.1-1.57h15.34L177,21.09Z"/><path class="cls-2" d="M158.87,9.33l-1.39,2.06-.66,1c-4.22,6.23-8.49,12.26-13,18.07l-4,6v26c0,2.1.27,3.47.82,4.13s1.72,1,3.53,1v.57H129v-.57q4.35.27,4.35-3.43l-.08-1.62v-24l-13.89-23q-2.19-3.66-4.89-3.54v-.58h13.4V12c-.94,0-1.52.26-1.76.79a1.54,1.54,0,0,0-.12.63,3.38,3.38,0,0,0,.47,1.4,9.36,9.36,0,0,0,.5.87l6.33,10.44h0l5.1,8.43.6-.91,11.9-18.11a4.24,4.24,0,0,0,.76-1.13q.09-.17.15-.3c.09-.2.16-.36.21-.5h0a1.46,1.46,0,0,0,.07-.34.34.34,0,0,0,0-.1c0-.76-.56-1.33-1.48-1.75a11.41,11.41,0,0,0-2.88-.78h0a33.22,33.22,0,0,0-4-.34c-2.46-.08-4.5,0-4.5,0a2.71,2.71,0,0,0,0-.29Z"/><path class="cls-3" d="M56,67.52v.57H33.12a41.84,41.84,0,0,1-11.53-1.42,30.25,30.25,0,0,1-10.08-5.41,30.79,30.79,0,0,1-8.32-9.91A25.49,25.49,0,0,1,0,39.22,26.3,26.3,0,0,1,4,25.71a30.47,30.47,0,0,1,11.34-11A32.89,32.89,0,0,1,32,10.54a48,48,0,0,1,17.66,3.7L52,20.78h-.56a22.61,22.61,0,0,0-8.1-6.25,25.91,25.91,0,0,0-11.45-2.48A22.48,22.48,0,0,0,14,20.3q-7,8.26-7,20.5A32.64,32.64,0,0,0,8.1,49.87a22.21,22.21,0,0,0,4.33,7.85,21.45,21.45,0,0,0,6.81,5.7A27.77,27.77,0,0,0,27.39,66a41.25,41.25,0,0,0,7.16.63l3-.08c3.44-.12,5.58-.44,6.44-1s1.29-1.82,1.29-3.92V53c0-1.67-.34-2.79-1-3.37a4.17,4.17,0,0,0-3-.75v-.57H56v.57c-1.65,0-2.74.32-3.29,1s-.83,1.87-.83,3.69v8.91a7.71,7.71,0,0,0,.71,3.86,2.77,2.77,0,0,0,2.6,1.18Z"/><path class="cls-3" d="M91,10.54q11.92,0,19.51,7.26a24,24,0,0,1,7.59,18.11q0,14-8.78,23.52T86,69q-11.78,0-19.28-7.7A25.5,25.5,0,0,1,59.22,42.8a34.83,34.83,0,0,1,3.62-14.93A30.14,30.14,0,0,1,91,10.54ZM90.75,66a23.67,23.67,0,0,0,11.54-3.14,23.28,23.28,0,0,0,9-8.64,21.91,21.91,0,0,0,3.27-11.32,26.74,26.74,0,0,0-4.4-15A31.22,31.22,0,0,0,98.69,17.36q-7-3.81-13-3.81A22,22,0,0,0,70.4,19.9a20.6,20.6,0,0,0-6.87,15.78,30.33,30.33,0,0,0,8.39,21.17Q80.32,66,90.75,66Z"/><path class="cls-3" d="M185.4,42H168.76L160.17,63.4a12.33,12.33,0,0,0-.88,2.85c0,.84.62,1.27,1.88,1.27v.57h-8.43v-.57a4.78,4.78,0,0,0,2.85-.83c.77-.55,1.61-2,2.54-4.3l20.55-51.85h1l20.21,50.08a21.42,21.42,0,0,0,1.56,3.64,5,5,0,0,0,4.74,3.26v.57H193v-.57c1.2,0,1.81-.48,1.81-1.43a9.34,9.34,0,0,0-.89-3.08,1.35,1.35,0,0,1-.27-.5c-.05-.25-.09-.38-.11-.38Zm-16.1-1.57h15.34L177,21.09Z"/><path class="cls-3" d="M158.87,9.33l-1.39,2.06-.66,1c-4.22,6.23-8.49,12.26-13,18.07l-4,6v26c0,2.1.27,3.47.82,4.13s1.72,1,3.53,1v.57H129v-.57q4.35.27,4.35-3.43l-.08-1.62v-24l-13.89-23q-2.19-3.66-4.89-3.54v-.58h13.4V12c-.94,0-1.52.26-1.76.79a1.54,1.54,0,0,0-.12.63,3.38,3.38,0,0,0,.47,1.4,9.36,9.36,0,0,0,.5.87l6.33,10.44h0l5.1,8.43.6-.91,11.9-18.11a4.24,4.24,0,0,0,.76-1.13q.09-.17.15-.3c.09-.2.16-.36.21-.5h0a1.46,1.46,0,0,0,.07-.34.34.34,0,0,0,0-.1c0-.76-.56-1.33-1.48-1.75a11.41,11.41,0,0,0-2.88-.78h0a33.22,33.22,0,0,0-4-.34c-2.46-.08-4.5,0-4.5,0a2.71,2.71,0,0,0,0-.29Z"/><path d="M152.12,13.24a1.46,1.46,0,0,1-.07.34v0a1.51,1.51,0,0,0,.06-.41A.34.34,0,0,1,152.12,13.24Z"/><path class="cls-1" d="M136.69,27.26l-1.45-.42-4.92-8.12-.4-1.25.3-1.19,1.61-1.16s4.84,9.21,4.86,9.52S136.69,27.26,136.69,27.26Z"/><path class="cls-2" d="M140.46,15.74c-7.37-2.57-11.18-1.4-11.42-1.33h0c.16-.1,3.72-2.21,6.77-.68A41.82,41.82,0,0,0,140.46,15.74Z"/><path class="cls-2" d="M129.26,14.41h0Z"/></g></g></svg>