<svg xmlns="http://www.w3.org/2000/svg" viewBox="0 0 239.06 98.59"><defs><style>.cls-1{fill:#f63754;}.cls-2{fill:#fff;}</style></defs><g id="Capa_2" data-name="Capa 2"><g id="Capa_1-2" data-name="Capa 1"><path class="cls-1" d="M161,16.26a25.19,25.19,0,0,0-3.07-1.74c-3-1.28-5.6-.64-8.19.75l-.12.06c-.58.31-1.16.66-1.74,1l.06.13c.13.25.3.54.52.91l2.62,4.31,5.71,9.42,3.75,6.19,13-19.78A13.68,13.68,0,0,1,161,16.26Zm-9.33,4s-.14,0-.15,0a.49.49,0,0,1,0-.21c.06,0,.13,0,.17.06S151.67,20.2,151.67,20.25ZM156.52,30l-.29-.19a.75.75,0,0,0,.07-.12l.31.19Z"/><path class="cls-2" d="M140.22,4.18l-.36-1.81c4-.79,7.87-1.58,11.78-2.34.79-.16,1.08.36,1.22,1.05.7,3.59,1.42,7.18,2.16,10.9l-1.86.11c-.66-3.31-1.32-6.64-2-10.08Z"/><path class="cls-2" d="M64.91,78.27v.67H38.4A48.6,48.6,0,0,1,25,77.29,35.23,35.23,0,0,1,13.34,71,35.75,35.75,0,0,1,3.7,59.53,29.5,29.5,0,0,1,0,45.47,30.51,30.51,0,0,1,4.64,29.81a35.28,35.28,0,0,1,13.14-12.7A38.11,38.11,0,0,1,37.1,12.22a55.55,55.55,0,0,1,20.49,4.29l2.72,7.59h-.66a26.16,26.16,0,0,0-9.38-7.26A30.1,30.1,0,0,0,37,14a26.07,26.07,0,0,0-20.83,9.57Q8.06,33.11,8.05,47.3A37.87,37.87,0,0,0,9.39,57.81a25.75,25.75,0,0,0,5,9.1,24.82,24.82,0,0,0,7.9,6.61,32.1,32.1,0,0,0,9.44,2.94,46.44,46.44,0,0,0,8.3.74l3.52-.09q6-.23,7.48-1.11c1-.6,1.49-2.12,1.49-4.56V61.49q0-2.9-1.2-3.9a4.76,4.76,0,0,0-3.44-.87v-.67h17v.67c-1.91,0-3.18.37-3.82,1.11s-1,2.17-1,4.28V72.44A9,9,0,0,0,61,76.91a3.22,3.22,0,0,0,3,1.36Z"/><path class="cls-2" d="M105.47,12.22q13.83,0,22.63,8.42a27.84,27.84,0,0,1,8.79,21q0,16.2-10.18,27.27T99.71,80Q86.06,80,77.36,71a29.56,29.56,0,0,1-8.71-21.42,40.34,40.34,0,0,1,4.2-17.31A35,35,0,0,1,85.48,17.83Q93.91,12.22,105.47,12.22Zm-.27,64.27a27.54,27.54,0,0,0,13.39-3.64,27,27,0,0,0,10.4-10,25.35,25.35,0,0,0,3.79-13.12,31,31,0,0,0-5.11-17.36,36.33,36.33,0,0,0-13.25-12.23q-8.15-4.41-15.06-4.41-9.78,0-17.74,7.36a23.91,23.91,0,0,0-8,18.3,35.12,35.12,0,0,0,9.73,24.54Q93.12,76.48,105.2,76.49Z"/><path class="cls-2" d="M214.93,48.68H195.64L185.69,73.5a14.1,14.1,0,0,0-1,3.3q0,1.47,2.19,1.47v.67h-9.77v-.67a5.49,5.49,0,0,0,3.29-1q1.35-1,2.95-5l23.82-60.11h1.18l23.44,58.06a25.51,25.51,0,0,0,1.8,4.22q1.81,3.77,5.5,3.77v.67H223.71v-.67q2.1,0,2.1-1.65a10.71,10.71,0,0,0-1-3.57,1.48,1.48,0,0,1-.31-.58,1.27,1.27,0,0,0-.13-.45Zm-18.66-1.83h17.78l-8.88-22.4Z"/><path class="cls-2" d="M52.45,91.29v1H50.53v6.27H49.34V92.25H47.4v-1Z"/><path class="cls-2" d="M59,91.29v7.23H57.81V91.29Z"/><path class="cls-2" d="M65.9,92.24v2.13h2.5v1H65.9v2.22h2.81v1h-4V91.28h4v1Z"/><path class="cls-2" d="M80.27,98.52H79.08l-3.57-5.4v5.4H74.33V91.28h1.18l3.57,5.38V91.28h1.19Z"/><path class="cls-2" d="M90.37,91.73A3.18,3.18,0,0,1,91.72,93a3.86,3.86,0,0,1,.47,1.93,3.78,3.78,0,0,1-.47,1.91,3.12,3.12,0,0,1-1.35,1.24,4.45,4.45,0,0,1-2,.44H86V91.29h2.36A4.33,4.33,0,0,1,90.37,91.73Zm-.07,5.13A2.64,2.64,0,0,0,91,94.93a2.74,2.74,0,0,0-.67-2,2.59,2.59,0,0,0-2-.71H87.18v5.3h1.17A2.62,2.62,0,0,0,90.3,96.86Z"/><path class="cls-2" d="M101.89,97h-3l-.52,1.48H97.1l2.59-7.24h1.37l2.59,7.24h-1.24Zm-.34-1-1.17-3.36-1.19,3.36Z"/><path class="cls-2" d="M121,93.37a1.93,1.93,0,0,0-.78-.82,2.43,2.43,0,0,0-1.16-.28,2.49,2.49,0,0,0-1.28.33,2.34,2.34,0,0,0-.88.91,3.2,3.2,0,0,0,0,2.75,2.3,2.3,0,0,0,.88.92,2.49,2.49,0,0,0,1.28.33,2.25,2.25,0,0,0,1.57-.54,2.31,2.31,0,0,0,.74-1.47H118.7v-1h4v.93a3.57,3.57,0,0,1-3.58,3.1,3.68,3.68,0,0,1-1.86-.48,3.51,3.51,0,0,1-1.34-1.31,3.95,3.95,0,0,1,0-3.81,3.56,3.56,0,0,1,1.35-1.32,3.94,3.94,0,0,1,3.91.1,3.2,3.2,0,0,1,1.3,1.61Z"/><path class="cls-2" d="M129.45,98.12a3.49,3.49,0,0,1-1.34-1.33,3.88,3.88,0,0,1,0-3.81,3.54,3.54,0,0,1,1.34-1.32,3.77,3.77,0,0,1,1.85-.47,3.82,3.82,0,0,1,1.87.47A3.54,3.54,0,0,1,134.51,93a3.95,3.95,0,0,1,0,3.81,3.49,3.49,0,0,1-1.34,1.33,3.82,3.82,0,0,1-1.87.47A3.77,3.77,0,0,1,129.45,98.12Zm3.13-.89a2.22,2.22,0,0,0,.88-.94,3.24,3.24,0,0,0,0-2.81,2.26,2.26,0,0,0-.88-.93,2.7,2.7,0,0,0-2.55,0,2.26,2.26,0,0,0-.88.93,3.24,3.24,0,0,0,0,2.81,2.22,2.22,0,0,0,.88.94,2.63,2.63,0,0,0,2.55,0Z"/><path class="cls-2" d="M141.5,91.29v4.6a1.48,1.48,0,0,0,1.63,1.66,1.49,1.49,0,0,0,1.65-1.66v-4.6H146v4.58a2.83,2.83,0,0,1-.38,1.5,2.41,2.41,0,0,1-1,.92,3.36,3.36,0,0,1-1.43.3,3.31,3.31,0,0,1-1.42-.3,2.36,2.36,0,0,1-1-.92,2.83,2.83,0,0,1-.38-1.5V91.29Z"/><path class="cls-2" d="M155.42,98.52l-1.67-2.9h-.9v2.9h-1.19V91.29h2.5a3,3,0,0,1,1.41.29,1.93,1.93,0,0,1,.86.78,2.11,2.11,0,0,1,.29,1.09,2.17,2.17,0,0,1-.41,1.28,2.1,2.1,0,0,1-1.27.79l1.79,3Zm-2.57-3.84h1.31a1.33,1.33,0,0,0,1-.34,1.34,1.34,0,0,0,0-1.77,1.42,1.42,0,0,0-1-.32h-1.31Z"/><path class="cls-2" d="M170,91.29v7.23h-1.18v-5l-2.21,5h-.82l-2.21-5v5H162.4V91.29h1.28L166.22,97l2.53-5.66Z"/><path class="cls-2" d="M176.92,92.24v2.13h2.5v1h-2.5v2.22h2.81v1h-4V91.28h4v1Z"/><path class="cls-2" d="M190,91.29v1H188.1v6.27h-1.19V92.25H185v-1Z"/><rect class="cls-2" y="93.78" width="41.63" height="1.12"/><rect class="cls-2" x="197.43" y="93.78" width="41.63" height="1.12"/><path d="M166.66,11.9l-5.22,0S163.81,11.81,166.66,11.9Z"/><path class="cls-2" d="M184.18,10.82l-1.61,2.39-.76,1.14c-4.9,7.22-9.85,14.2-15.1,20.94l-4.59,7V72.35c0,2.43.31,4,.94,4.79s2,1.13,4.1,1.13v.67H149.58v-.67q5,.32,5-4l-.09-1.87V44.65L138.42,18c-1.7-2.83-3.58-4.2-5.67-4.1v-.67h15.53v.67c-1.08,0-1.75.3-2,.92a1.78,1.78,0,0,0-.14.72,3.86,3.86,0,0,0,.54,1.63c.16.31.35.64.58,1l7.34,12.1h0L160.49,40l.69-1.06L175,18a4.82,4.82,0,0,0,.89-1.31c.07-.12.12-.24.17-.34a4.54,4.54,0,0,0,.24-.58h0a1.49,1.49,0,0,0,.08-.39v-.11c0-.89-.66-1.55-1.72-2a12.71,12.71,0,0,0-3.34-.9h0a37.75,37.75,0,0,0-4.62-.41c-2.85-.09-5.22,0-5.22,0V11.6Z"/><path d="M176.35,15.35a1.49,1.49,0,0,1-.08.39s0,0,0,0a2.57,2.57,0,0,0,.07-.46Z"/><path class="cls-1" d="M158.46,31.6l-1.67-.48-5.71-9.42-.46-1.45.35-1.37,1.87-1.35s5.6,10.68,5.62,11S158.46,31.6,158.46,31.6Z"/><path class="cls-2" d="M162.84,18.24c-8.54-3-13-1.62-13.24-1.53h0c.18-.12,4.31-2.56,7.85-.79A46.32,46.32,0,0,0,162.84,18.24Z"/><path class="cls-2" d="M149.86,16.71h0Z"/></g></g></svg>